<svg width="469" height="554" viewBox="0 0 469 554" fill="none" xmlns="http://www.w3.org/2000/svg">
<path d="M36.6406 519.375H432.359C440.454 519.375 447.016 511.624 447.016 502.062V51.9375C447.016 42.3761 440.454 34.625 432.359 34.625H36.6406C28.5462 34.625 21.9844 42.3761 21.9844 51.9375V502.062C21.9844 511.624 28.5462 519.375 36.6406 519.375Z" fill="#E9EEF2"/>
<path d="M447.016 51.9375V103.875H21.9844V51.9375C21.9844 47.3459 23.5285 42.9424 26.2771 39.6957C29.0257 36.449 32.7535 34.625 36.6406 34.625H432.359C436.246 34.625 439.974 36.449 442.723 39.6957C445.471 42.9424 447.016 47.3459 447.016 51.9375Z" fill="#C3C6C7"/>
<path d="M109.922 77.9062C113.969 77.9062 117.25 74.0307 117.25 69.25C117.25 64.4693 113.969 60.5938 109.922 60.5938C105.875 60.5938 102.594 64.4693 102.594 69.25C102.594 74.0307 105.875 77.9062 109.922 77.9062Z" fill="#E9EEF2"/>
<path d="M80.6094 77.9062C84.6566 77.9062 87.9375 74.0307 87.9375 69.25C87.9375 64.4693 84.6566 60.5938 80.6094 60.5938C76.5622 60.5938 73.2812 64.4693 73.2812 69.25C73.2812 74.0307 76.5622 77.9062 80.6094 77.9062Z" fill="#E9EEF2"/>
<path d="M51.2969 77.9062C55.3441 77.9062 58.625 74.0307 58.625 69.25C58.625 64.4693 55.3441 60.5938 51.2969 60.5938C47.2497 60.5938 43.9688 64.4693 43.9688 69.25C43.9688 74.0307 47.2497 77.9062 51.2969 77.9062Z" fill="#E9EEF2"/>
<path d="M146.562 363.562H322.438V398.188H146.562V363.562Z" fill="#DCDEE0"/>
<path d="M146.562 432.812H322.438V467.438H146.562V432.812Z" fill="#DCDEE0"/>
<path d="M146.562 432.812H175.875V467.438H146.562V432.812Z" fill="#C3C6C7"/>
<path d="M146.562 363.562H175.875V398.188H146.562V363.562Z" fill="#C3C6C7"/>
<path d="M307.781 242.375C307.781 259.495 303.483 276.231 295.431 290.467C287.379 304.702 275.934 315.797 262.544 322.348C249.153 328.9 234.419 330.614 220.204 327.274C205.988 323.934 192.931 315.69 182.682 303.584C172.434 291.478 165.454 276.054 162.627 259.263C159.799 242.471 161.25 225.066 166.797 209.249C172.343 193.432 181.736 179.913 193.787 170.401C205.838 160.889 220.006 155.813 234.5 155.813C244.134 155.768 253.68 157.977 262.588 162.312C271.496 166.646 279.589 173.021 286.401 181.067C293.213 189.114 298.61 198.675 302.279 209.197C305.949 219.719 307.819 230.995 307.781 242.375Z" fill="#7E8589"/>
<path d="M289.626 299.398C282.749 308.677 274.274 316.113 264.766 321.208C255.259 326.302 244.94 328.938 234.5 328.938C224.06 328.938 213.741 326.302 204.234 321.208C194.726 316.113 186.251 308.677 179.374 299.398C187.554 266.136 209.145 242.375 234.5 242.375C259.855 242.375 281.446 266.136 289.626 299.398Z" fill="#F7D1B2"/>
<path d="M234.5 242.375C246.642 242.375 256.484 230.748 256.484 216.406C256.484 202.064 246.642 190.438 234.5 190.438C222.358 190.438 212.516 202.064 212.516 216.406C212.516 230.748 222.358 242.375 234.5 242.375Z" fill="#F7D1B2"/>
</svg>
