<?xml version="1.0" standalone="no"?>
<!DOCTYPE svg PUBLIC "-//W3C//DTD SVG 20010904//EN"
 "http://www.w3.org/TR/2001/REC-SVG-20010904/DTD/svg10.dtd">
<svg version="1.0" xmlns="http://www.w3.org/2000/svg"
 width="60.000000pt" height="60.000000pt" viewBox="0 0 60.000000 60.000000"
 preserveAspectRatio="xMidYMid meet">

<g transform="translate(0.000000,60.000000) scale(0.100000,-0.100000)"
fill="#000000" stroke="none">
<path d="M10 581 c-11 -21 -14 -519 -4 -558 l6 -23 288 0 c253 0 289 2 294 16
8 20 8 548 0 568 -5 14 -40 16 -290 16 -270 0 -284 -1 -294 -19z m441 -83 c92
-83 129 -131 129 -164 -1 -31 -34 -65 -70 -73 -26 -5 -35 -13 -42 -36 -10 -39
-33 -55 -80 -55 -31 0 -48 9 -105 59 -104 90 -147 137 -140 155 4 9 12 16 18
16 6 0 53 -41 104 -91 79 -77 97 -90 121 -87 22 2 30 9 32 28 2 20 -16 43 -88
115 -85 85 -109 125 -75 125 9 0 58 -41 110 -91 79 -77 98 -90 122 -87 21 2
29 9 31 27 3 19 -16 43 -89 117 -64 64 -90 97 -86 108 4 9 9 16 13 16 3 0 46
-37 95 -82z m-158 51 c31 -16 207 -191 207 -206 0 -30 -38 -8 -131 77 -55 50
-105 90 -112 90 -19 0 -37 -21 -37 -45 0 -12 34 -55 90 -110 50 -49 90 -93 90
-98 0 -4 -7 -10 -15 -13 -9 -4 -51 27 -115 85 -55 50 -106 91 -113 91 -19 0
-37 -21 -37 -44 0 -13 36 -57 91 -112 64 -64 90 -97 86 -108 -4 -9 -10 -16
-14 -16 -4 0 -66 56 -137 123 -97 92 -128 127 -123 140 3 9 14 17 23 17 9 0
27 11 40 25 13 14 34 25 49 25 19 0 25 5 25 20 0 52 78 87 133 59z m-189 -441
l16 -22 16 22 c22 32 34 27 34 -13 0 -19 -4 -35 -10 -35 -5 0 -10 8 -10 17 0
15 -2 14 -15 -3 -15 -19 -15 -19 -30 0 -13 17 -15 18 -15 3 0 -9 -4 -17 -10
-17 -5 0 -10 16 -10 35 0 40 12 45 34 13z m137 -10 c9 -33 4 -38 -35 -37 -29
1 -30 1 -6 8 24 7 24 7 5 15 l-20 8 20 8 c18 8 18 9 2 9 -10 1 -15 6 -12 12
12 18 38 5 46 -23z m104 22 c3 -5 1 -10 -4 -10 -6 0 -11 -11 -11 -25 0 -16 -6
-25 -15 -25 -9 0 -15 9 -15 25 0 14 -4 25 -10 25 -5 0 -10 5 -10 10 0 6 13 10
29 10 17 0 33 -4 36 -10z m65 0 c0 -5 -8 -10 -17 -11 -15 0 -15 -2 2 -9 20 -8
20 -8 1 -16 -19 -7 -19 -8 0 -15 16 -6 15 -8 -8 -8 -25 -1 -28 2 -28 34 0 31
3 35 25 35 14 0 25 -4 25 -10z m111 -11 c8 -12 11 -11 20 4 14 24 29 12 29
-24 0 -30 -23 -41 -33 -16 -4 9 -7 9 -15 -1 -6 -9 -25 -12 -53 -10 -34 2 -45
7 -48 22 -2 11 4 25 13 32 21 15 75 11 87 -7z"/>
<path d="M444 99 c-9 -15 12 -33 30 -26 9 4 16 13 16 22 0 17 -35 21 -46 4z"/>
</g>
</svg>
