<svg id="svg" version="1.1" xmlns="http://www.w3.org/2000/svg" xmlns:xlink="http://www.w3.org/1999/xlink" width="400" height="88.88888888888889" viewBox="0, 0, 400,88.88888888888889"><g id="svgg"><path id="path0" d="M3.237 18.557 C 3.188 18.684,3.171 19.229,3.199 19.769 L 3.250 20.750 4.125 20.800 L 5.000 20.851 5.000 21.596 C 5.000 22.228,5.063 22.369,5.417 22.530 C 5.784 22.698,5.833 22.824,5.833 23.593 C 5.833 24.305,5.909 24.537,6.247 24.858 C 6.505 25.102,6.663 25.439,6.666 25.750 C 6.675 26.589,6.846 26.967,7.266 27.072 C 7.623 27.162,7.667 27.265,7.667 28.011 C 7.667 28.682,7.749 28.931,8.083 29.265 C 8.426 29.608,8.500 29.843,8.500 30.591 C 8.500 31.449,8.523 31.500,8.917 31.500 C 9.318 31.500,9.333 31.540,9.333 32.570 C 9.333 33.904,9.432 34.167,9.934 34.167 C 10.311 34.167,10.333 34.223,10.333 35.167 C 10.333 36.519,10.667 36.870,11.883 36.800 L 12.750 36.750 12.795 33.812 C 12.841 30.846,12.723 30.000,12.262 30.000 C 12.080 30.000,12.004 29.753,11.967 29.042 C 11.922 28.193,11.874 28.077,11.542 28.030 C 11.208 27.983,11.166 27.881,11.164 27.113 C 11.161 25.911,11.031 25.544,10.568 25.428 C 10.204 25.336,10.167 25.240,10.167 24.403 C 10.167 23.392,9.957 22.833,9.577 22.833 C 9.393 22.833,9.333 22.612,9.333 21.928 C 9.333 21.068,9.310 21.019,8.875 20.953 C 8.623 20.915,8.814 20.872,9.299 20.858 L 10.181 20.833 10.132 19.625 L 10.083 18.417 6.704 18.372 C 3.951 18.335,3.309 18.369,3.237 18.557 M13.934 18.597 C 13.804 18.938,13.804 20.229,13.934 20.570 C 14.007 20.758,14.280 20.840,14.893 20.856 C 15.364 20.869,15.563 20.914,15.333 20.956 C 14.754 21.064,14.672 21.258,14.669 22.530 C 14.667 23.557,14.638 23.648,14.292 23.697 C 13.945 23.746,13.913 23.846,13.868 25.042 C 13.821 26.294,13.807 26.333,13.404 26.333 L 12.988 26.333 13.036 28.042 L 13.083 29.750 14.000 29.745 C 15.451 29.737,15.500 29.692,15.500 28.339 C 15.500 27.321,15.540 27.167,15.800 27.167 C 16.332 27.167,16.499 26.800,16.519 25.592 C 16.530 24.945,16.574 24.552,16.617 24.718 C 16.703 25.051,17.304 25.333,17.928 25.333 L 18.333 25.333 18.333 29.833 L 18.333 34.333 17.708 34.336 C 16.401 34.341,16.183 35.208,17.196 36.375 C 17.746 37.009,18.766 37.032,19.000 36.417 C 19.111 36.125,19.284 36.000,19.576 36.000 C 19.882 36.000,20.021 36.111,20.098 36.417 C 20.202 36.832,20.209 36.833,22.189 36.833 C 24.154 36.833,24.177 36.829,24.333 36.417 C 24.551 35.844,25.450 35.812,25.530 36.375 C 25.613 36.960,26.660 36.991,27.226 36.426 C 27.751 35.900,28.127 35.880,28.197 36.375 C 28.259 36.811,29.122 36.969,29.875 36.682 C 30.719 36.362,30.902 34.333,30.087 34.333 C 29.947 34.333,29.819 34.315,29.802 34.292 C 29.784 34.269,29.728 32.303,29.677 29.924 L 29.583 25.598 29.167 25.482 C 28.829 25.389,28.882 25.363,29.446 25.350 C 30.403 25.327,30.667 25.014,30.667 23.901 C 30.667 22.717,30.465 22.638,27.503 22.668 C 26.264 22.681,23.469 22.686,21.292 22.679 L 17.333 22.667 17.333 22.250 C 17.333 21.917,17.417 21.833,17.750 21.833 C 18.102 21.833,18.167 21.756,18.167 21.333 C 18.167 20.864,18.206 20.833,18.813 20.833 C 19.623 20.833,19.917 20.500,19.917 19.583 C 19.917 18.369,19.826 18.333,16.747 18.333 C 14.428 18.333,14.021 18.372,13.934 18.597 M63.033 18.533 C 62.739 18.827,62.745 37.426,63.039 37.607 C 63.152 37.677,63.902 37.766,64.706 37.804 L 66.167 37.874 66.167 28.104 L 66.167 18.333 64.700 18.333 C 63.781 18.333,63.159 18.408,63.033 18.533 M77.499 18.634 C 76.841 19.167,77.462 20.833,78.318 20.833 C 78.666 20.833,78.667 20.848,78.667 27.583 L 78.667 34.333 78.264 34.333 C 76.968 34.333,76.695 35.378,77.707 36.458 C 78.294 37.085,80.333 36.919,80.333 36.244 C 80.333 35.792,81.318 35.937,81.500 36.417 C 81.714 36.979,83.537 37.053,83.827 36.511 C 84.246 35.729,84.044 34.333,83.512 34.333 C 83.132 34.333,83.011 34.250,82.970 33.958 C 82.936 33.717,82.783 33.564,82.542 33.530 L 82.167 33.477 82.167 27.164 L 82.167 20.851 83.042 20.800 L 83.917 20.750 83.917 19.583 L 83.917 18.417 80.898 18.371 C 78.170 18.330,77.843 18.356,77.499 18.634 M88.292 18.745 C 87.725 19.524,88.160 20.833,88.985 20.833 C 89.321 20.833,89.333 20.913,89.333 23.062 L 89.333 25.291 87.395 25.366 C 85.109 25.453,85.000 25.529,85.000 27.032 L 85.000 28.000 87.167 28.000 L 89.333 28.000 89.333 31.167 L 89.333 34.333 88.954 34.333 C 88.061 34.333,87.472 35.295,88.145 35.655 C 88.316 35.747,88.501 36.049,88.557 36.327 C 88.710 37.093,91.000 37.082,91.000 36.316 C 91.000 35.802,91.963 35.881,92.165 36.411 L 92.321 36.823 95.035 36.809 C 98.416 36.793,98.167 37.018,98.167 33.980 L 98.167 31.500 99.575 31.500 L 100.983 31.500 101.033 32.375 C 101.077 33.137,101.132 33.257,101.458 33.303 C 102.040 33.386,102.001 34.333,101.417 34.333 C 100.893 34.333,100.778 36.088,101.270 36.579 C 101.731 37.040,103.400 36.868,103.473 36.352 L 103.529 35.953 103.728 36.352 C 104.042 36.982,107.584 37.030,107.868 36.407 C 108.104 35.888,108.390 35.891,108.804 36.417 C 109.288 37.032,112.867 37.066,113.183 36.458 C 113.291 36.252,113.398 36.060,113.422 36.032 C 113.445 36.003,113.657 36.172,113.891 36.407 C 114.495 37.010,115.591 37.016,115.864 36.417 C 115.968 36.188,116.149 36.000,116.265 36.000 C 116.381 36.000,116.623 36.188,116.804 36.417 C 117.328 37.083,120.903 37.063,121.208 36.392 L 121.410 35.950 121.504 36.350 C 121.670 37.053,124.376 37.006,125.125 36.288 C 125.841 35.600,125.910 34.567,125.250 34.402 C 124.656 34.253,124.652 33.415,125.244 33.266 C 125.591 33.179,125.673 33.033,125.766 32.332 L 125.876 31.500 126.705 31.500 C 127.890 31.500,128.500 32.154,128.500 33.423 C 128.500 34.157,128.444 34.329,128.175 34.414 C 127.485 34.633,127.564 35.680,128.326 36.410 C 128.939 36.997,130.051 36.976,130.137 36.375 C 130.217 35.809,131.091 35.842,131.235 36.417 C 131.399 37.071,132.485 37.014,133.069 36.321 C 133.836 35.409,133.463 34.333,132.380 34.333 C 132.061 34.333,132.000 34.245,132.000 33.779 C 132.000 33.258,132.030 33.229,132.500 33.298 C 132.895 33.356,133.000 33.454,133.000 33.769 C 133.000 34.082,133.089 34.167,133.417 34.167 C 133.769 34.167,133.833 34.244,133.833 34.667 C 133.833 35.089,133.898 35.167,134.250 35.167 C 134.583 35.167,134.667 35.250,134.667 35.583 C 134.667 35.977,134.717 36.000,135.583 36.000 C 136.450 36.000,136.500 36.023,136.500 36.417 L 136.500 36.833 138.667 36.833 L 140.833 36.833 140.833 36.417 C 140.833 36.023,140.883 36.000,141.750 36.000 C 142.635 36.000,142.667 35.984,142.684 35.542 C 142.699 35.124,142.713 35.134,142.837 35.663 C 143.107 36.808,145.018 37.402,145.265 36.417 C 145.393 35.905,145.390 35.905,145.902 36.417 C 146.359 36.875,147.436 36.997,147.800 36.633 C 148.230 36.204,148.053 34.333,147.583 34.333 C 147.189 34.333,147.167 34.283,147.167 33.417 C 147.167 32.174,147.831 32.025,148.093 33.208 C 148.200 33.692,148.369 33.969,148.625 34.081 C 148.854 34.181,149.000 34.392,149.000 34.620 C 149.000 34.877,149.127 35.025,149.407 35.096 C 149.655 35.158,149.834 35.339,149.865 35.557 C 149.909 35.863,150.042 35.924,150.755 35.966 C 151.434 36.006,151.625 36.085,151.755 36.382 C 152.052 37.059,153.849 37.005,154.490 36.299 C 155.382 35.319,155.125 34.333,153.978 34.333 C 153.423 34.333,153.350 34.284,153.303 33.875 C 153.265 33.551,153.143 33.401,152.885 33.365 C 152.658 33.332,152.501 33.175,152.469 32.948 C 152.432 32.690,152.282 32.568,151.958 32.531 C 151.598 32.489,151.500 32.391,151.500 32.072 C 151.500 31.754,151.413 31.667,151.094 31.667 C 150.776 31.667,150.677 31.568,150.636 31.208 C 150.598 30.880,150.477 30.735,150.208 30.697 C 149.937 30.658,149.833 30.532,149.833 30.238 C 149.833 29.899,149.752 29.833,149.333 29.833 C 148.611 29.833,148.573 28.885,149.292 28.803 C 149.615 28.765,149.765 28.643,149.802 28.385 C 149.834 28.158,149.991 28.001,150.219 27.969 C 150.446 27.936,150.603 27.779,150.635 27.552 C 150.668 27.325,150.825 27.168,151.052 27.135 C 151.307 27.099,151.432 26.949,151.468 26.635 C 151.508 26.289,151.622 26.175,151.968 26.135 C 152.283 26.099,152.432 25.974,152.469 25.717 C 152.513 25.408,152.643 25.343,153.302 25.300 L 154.083 25.250 154.083 24.000 L 154.083 22.750 152.250 22.700 C 150.044 22.640,149.395 22.741,149.159 23.180 C 148.925 23.619,149.108 24.153,149.556 24.334 C 149.892 24.469,149.886 24.480,149.458 24.489 C 149.083 24.498,149.000 24.576,149.000 24.917 C 149.000 25.207,148.909 25.333,148.700 25.333 C 148.323 25.333,148.000 25.647,148.000 26.014 C 148.000 26.181,147.831 26.327,147.583 26.374 C 147.206 26.446,147.167 26.401,147.167 25.894 C 147.167 25.405,147.221 25.333,147.590 25.333 C 148.012 25.333,148.014 25.327,147.965 24.042 L 147.917 22.750 141.833 22.750 L 135.750 22.750 135.697 23.208 C 135.653 23.594,135.566 23.667,135.148 23.667 C 134.823 23.667,134.508 23.821,134.239 24.111 C 134.012 24.356,133.659 24.639,133.455 24.740 C 133.175 24.879,133.071 25.097,133.033 25.619 C 132.988 26.234,132.930 26.319,132.533 26.365 L 132.083 26.417 131.994 29.417 C 131.945 31.067,131.889 32.290,131.869 32.136 C 131.849 31.982,131.687 31.809,131.508 31.753 C 131.251 31.671,131.173 31.470,131.133 30.783 C 131.087 29.976,131.052 29.913,130.625 29.864 C 130.168 29.811,130.167 29.808,130.167 28.489 C 130.167 27.196,130.158 27.167,129.757 27.167 C 129.361 27.167,129.346 27.123,129.299 25.875 C 129.254 24.680,129.222 24.579,128.875 24.530 C 128.552 24.484,128.500 24.377,128.500 23.759 C 128.500 22.805,128.261 22.639,126.973 22.700 L 125.917 22.750 125.866 23.625 C 125.820 24.429,125.783 24.500,125.408 24.500 C 125.027 24.500,125.000 24.558,125.000 25.369 C 125.000 26.114,124.936 26.289,124.548 26.598 C 124.146 26.918,124.089 27.092,124.028 28.178 C 123.962 29.337,123.758 29.833,123.345 29.833 C 123.233 29.833,123.167 30.330,123.167 31.167 C 123.167 32.478,123.160 32.500,122.750 32.500 C 122.357 32.500,122.332 32.554,122.306 33.458 L 122.279 34.417 122.181 33.500 L 122.083 32.583 121.417 32.583 C 120.890 32.583,120.716 32.660,120.589 32.949 C 120.501 33.150,120.257 33.358,120.048 33.411 C 119.779 33.478,119.667 33.628,119.667 33.920 C 119.667 34.310,119.615 34.333,118.750 34.333 L 117.833 34.333 117.833 29.845 L 117.833 25.357 118.208 25.303 C 118.559 25.253,118.583 25.169,118.583 24.000 L 118.583 22.750 116.189 22.704 C 113.391 22.649,113.333 22.674,113.333 23.923 C 113.333 25.066,113.447 25.333,113.934 25.333 L 114.333 25.333 114.333 29.104 C 114.333 32.360,114.301 32.847,114.094 32.676 C 113.709 32.356,112.775 32.526,112.589 32.949 C 112.501 33.150,112.257 33.358,112.048 33.411 C 111.779 33.478,111.667 33.628,111.667 33.920 C 111.667 34.310,111.615 34.333,110.750 34.333 L 109.833 34.333 109.833 29.845 L 109.833 25.357 110.208 25.303 C 110.559 25.253,110.583 25.169,110.583 24.000 L 110.583 22.750 108.189 22.704 C 105.413 22.650,105.333 22.682,105.333 23.865 C 105.333 24.844,105.557 25.333,106.006 25.333 C 106.323 25.333,106.333 25.471,106.333 29.833 L 106.333 34.333 105.844 34.333 C 105.435 34.333,105.347 34.259,105.303 33.875 C 105.265 33.547,105.144 33.402,104.875 33.363 C 104.529 33.314,104.500 33.225,104.500 32.188 C 104.500 31.033,104.333 30.667,103.807 30.667 C 103.557 30.667,103.507 30.478,103.465 29.375 C 103.420 28.180,103.389 28.079,103.042 28.030 C 102.694 27.981,102.667 27.893,102.667 26.818 C 102.667 25.761,102.632 25.644,102.271 25.479 C 101.930 25.324,101.864 25.151,101.789 24.218 C 101.684 22.906,101.625 22.839,100.450 22.718 C 99.226 22.592,98.384 23.344,98.300 24.639 C 98.258 25.287,98.191 25.425,97.894 25.467 C 97.490 25.525,97.333 26.052,97.333 27.354 C 97.333 28.040,97.284 28.167,97.018 28.167 C 96.601 28.167,96.500 28.479,96.500 29.764 C 96.500 30.592,96.445 30.833,96.256 30.833 C 95.869 30.833,95.667 31.398,95.667 32.477 C 95.667 33.387,95.633 33.482,95.292 33.530 C 95.051 33.564,94.898 33.717,94.863 33.958 C 94.773 34.597,93.904 34.481,93.771 33.813 C 93.637 33.142,93.634 21.446,93.768 21.097 C 93.823 20.952,94.048 20.833,94.268 20.833 C 94.653 20.833,94.667 20.791,94.667 19.583 L 94.667 18.333 91.625 18.339 C 88.607 18.344,88.581 18.347,88.292 18.745 M160.654 18.691 C 160.114 19.699,160.670 20.827,161.708 20.831 L 162.333 20.833 162.333 27.583 L 162.333 34.333 161.589 34.333 C 160.354 34.333,160.153 35.299,161.168 36.361 C 161.780 37.001,163.212 36.997,163.639 36.354 C 163.971 35.854,164.862 35.867,165.085 36.375 C 165.359 37.000,169.977 37.038,170.594 36.421 C 171.167 35.849,171.925 35.846,172.068 36.417 C 172.175 36.840,175.538 37.081,176.100 36.706 C 176.661 36.331,176.440 34.333,175.837 34.333 C 175.574 34.333,175.500 34.224,175.500 33.833 C 175.500 33.410,175.564 33.333,175.921 33.333 C 176.255 33.333,176.362 33.230,176.442 32.833 C 176.539 32.345,176.565 32.333,177.532 32.333 C 178.076 32.333,178.667 32.256,178.844 32.161 C 179.148 31.998,179.167 32.052,179.167 33.077 C 179.167 34.149,179.174 34.167,179.625 34.189 C 180.057 34.211,180.060 34.216,179.681 34.288 C 178.766 34.460,178.369 35.713,178.993 36.461 C 179.307 36.838,179.317 36.839,183.612 36.795 L 187.917 36.750 187.917 35.583 C 187.917 34.500,187.890 34.413,187.542 34.363 C 187.173 34.311,187.167 34.270,187.167 31.971 C 187.167 29.906,187.198 29.643,187.430 29.732 C 187.575 29.788,187.758 29.833,187.835 29.833 C 187.913 29.833,188.001 30.002,188.030 30.208 C 188.068 30.477,188.213 30.598,188.542 30.636 C 188.902 30.677,189.000 30.776,189.000 31.094 C 189.000 31.416,189.086 31.500,189.417 31.500 C 189.769 31.500,189.833 31.578,189.833 32.000 C 189.833 32.422,189.898 32.500,190.250 32.500 C 190.583 32.500,190.667 32.583,190.667 32.917 C 190.667 33.269,190.744 33.333,191.167 33.333 C 191.589 33.333,191.667 33.398,191.667 33.750 C 191.667 34.083,191.750 34.167,192.083 34.167 C 192.435 34.167,192.500 34.244,192.500 34.667 C 192.500 35.082,192.567 35.167,192.895 35.167 C 193.227 35.167,193.308 35.273,193.396 35.828 C 193.544 36.752,195.299 37.301,195.967 36.633 C 196.122 36.478,196.167 36.478,196.167 36.633 C 196.167 37.001,206.438 36.912,206.653 36.542 C 206.814 36.265,206.823 36.265,206.828 36.546 C 206.833 36.818,207.036 36.838,209.375 36.796 L 211.917 36.750 211.917 35.583 C 211.917 34.500,211.890 34.413,211.542 34.363 C 211.176 34.311,211.167 34.259,211.169 32.280 C 211.171 31.058,211.230 30.341,211.317 30.480 C 211.397 30.606,211.545 30.658,211.646 30.596 C 211.761 30.525,211.793 30.579,211.730 30.741 C 211.676 30.884,211.711 31.000,211.808 31.000 C 211.910 31.000,212.006 31.474,212.034 32.125 C 212.082 33.214,212.098 33.252,212.542 33.303 C 212.928 33.347,213.000 33.434,213.000 33.855 C 213.000 34.646,213.274 34.987,214.005 35.104 C 214.560 35.192,214.667 35.273,214.667 35.605 C 214.667 35.931,214.752 36.000,215.155 36.000 C 215.535 36.000,215.655 36.084,215.697 36.375 C 215.795 37.069,221.667 37.025,221.667 36.330 C 221.667 36.074,221.779 36.000,222.167 36.000 C 222.589 36.000,222.667 35.935,222.667 35.583 C 222.667 35.250,222.750 35.167,223.083 35.167 C 223.313 35.167,223.500 35.092,223.500 35.000 C 223.500 34.784,224.117 34.167,224.333 34.167 C 224.425 34.167,224.500 33.984,224.500 33.762 C 224.500 33.468,224.604 33.342,224.875 33.303 C 225.246 33.251,225.250 33.220,225.295 30.208 C 225.333 27.690,225.382 27.167,225.581 27.167 C 225.714 27.167,226.052 26.942,226.333 26.667 C 226.615 26.392,226.917 26.167,227.006 26.167 C 227.094 26.167,227.167 25.979,227.167 25.750 C 227.167 25.356,227.217 25.333,228.083 25.333 L 229.000 25.333 229.000 29.822 L 229.000 34.311 228.542 34.364 C 228.057 34.420,227.826 35.452,228.076 36.447 C 228.229 37.055,233.105 37.055,233.257 36.447 C 233.481 35.554,233.273 34.420,232.875 34.363 L 232.500 34.310 232.500 29.822 L 232.500 25.333 233.000 25.333 C 233.387 25.333,233.500 25.408,233.500 25.663 C 233.500 25.877,233.648 26.031,233.917 26.098 C 234.208 26.171,234.333 26.317,234.333 26.582 C 234.333 27.049,234.694 27.161,236.196 27.164 C 237.320 27.167,237.833 26.935,237.833 26.424 C 237.833 26.304,237.989 26.165,238.179 26.115 C 238.369 26.065,238.565 25.869,238.615 25.679 C 238.680 25.430,238.840 25.333,239.186 25.333 L 239.667 25.333 239.667 29.833 C 239.667 34.241,239.660 34.333,239.329 34.333 C 238.880 34.333,238.679 34.911,238.789 35.886 C 238.898 36.859,238.907 36.861,241.750 36.798 L 243.917 36.750 243.966 35.542 C 244.014 34.346,244.010 34.333,243.591 34.333 L 243.167 34.333 243.167 29.833 L 243.167 25.333 244.083 25.333 C 244.950 25.333,245.000 25.356,245.000 25.750 C 245.000 26.083,245.083 26.167,245.417 26.167 C 245.724 26.167,245.833 26.255,245.833 26.504 C 245.833 27.656,247.462 27.295,247.544 26.124 C 247.577 25.643,247.619 27.289,247.636 29.781 L 247.667 34.311 247.208 34.364 C 246.702 34.422,246.530 35.137,246.746 36.289 L 246.850 36.842 249.383 36.796 L 251.917 36.750 251.966 35.542 C 252.014 34.346,252.010 34.333,251.591 34.333 L 251.167 34.333 251.167 29.845 L 251.167 25.357 251.542 25.303 C 251.994 25.239,252.218 23.074,251.800 22.809 C 251.538 22.643,243.189 22.638,242.257 22.803 C 241.746 22.894,241.572 23.013,241.482 23.335 C 241.371 23.736,241.366 23.737,241.350 23.371 C 241.322 22.744,240.732 22.667,236.031 22.669 C 231.309 22.671,230.836 22.715,230.828 23.144 C 230.824 23.371,230.780 23.360,230.571 23.083 C 230.336 22.773,230.124 22.750,227.451 22.750 L 224.583 22.750 224.489 24.083 C 224.437 24.817,224.381 25.249,224.364 25.045 C 224.344 24.801,224.190 24.637,223.917 24.568 C 223.688 24.511,223.500 24.402,223.500 24.327 C 223.500 24.008,222.935 23.667,222.405 23.667 C 221.957 23.667,221.833 23.599,221.833 23.354 C 221.833 22.726,221.485 22.657,218.561 22.704 L 215.750 22.750 215.697 23.208 C 215.649 23.632,215.588 23.667,214.902 23.667 C 214.276 23.667,214.130 23.731,213.974 24.075 C 213.871 24.299,213.629 24.505,213.435 24.533 C 213.136 24.576,213.076 24.714,213.033 25.458 C 212.984 26.305,212.966 26.333,212.491 26.333 C 212.003 26.333,212.000 26.339,212.000 27.316 C 212.000 28.042,211.934 28.323,211.746 28.395 C 211.606 28.449,211.424 28.663,211.340 28.871 C 211.235 29.134,211.185 28.651,211.177 27.303 C 211.167 25.408,211.177 25.355,211.542 25.303 C 211.993 25.239,212.218 23.071,211.801 22.813 C 211.551 22.659,193.165 22.614,192.767 22.767 C 192.252 22.964,192.390 25.333,192.917 25.333 L 193.333 25.333 193.333 28.000 L 193.333 30.667 192.949 30.667 C 192.632 30.667,192.536 30.542,192.407 29.958 C 192.300 29.475,192.131 29.198,191.875 29.085 C 191.653 28.988,191.500 28.774,191.500 28.562 C 191.500 28.321,191.367 28.169,191.095 28.101 C 190.842 28.038,190.670 27.859,190.637 27.625 C 190.603 27.388,190.449 27.231,190.219 27.198 C 189.991 27.166,189.834 27.009,189.802 26.781 C 189.765 26.524,189.615 26.401,189.292 26.364 C 188.908 26.320,188.833 26.232,188.833 25.822 C 188.833 25.412,188.766 25.333,188.417 25.333 C 188.083 25.333,188.000 25.250,188.000 24.917 C 188.000 24.583,187.917 24.500,187.583 24.500 C 187.250 24.500,187.167 24.417,187.167 24.083 C 187.167 23.731,187.089 23.667,186.667 23.667 C 186.250 23.667,186.167 23.600,186.167 23.268 C 186.167 22.755,185.908 22.667,184.415 22.667 C 182.822 22.667,182.634 22.838,182.701 24.228 L 182.750 25.250 183.625 25.300 L 184.500 25.351 184.500 29.842 L 184.500 34.333 183.590 34.333 L 182.681 34.333 182.632 33.042 C 182.587 31.846,182.555 31.746,182.208 31.697 C 181.873 31.649,181.833 31.550,181.833 30.749 C 181.833 29.606,181.606 29.000,181.178 29.000 C 180.884 29.000,180.843 28.869,180.799 27.792 C 180.756 26.723,180.707 26.564,180.375 26.419 C 180.054 26.278,180.000 26.127,180.000 25.377 C 180.000 24.553,179.975 24.500,179.583 24.500 C 179.210 24.500,179.167 24.433,179.167 23.845 C 179.167 23.013,178.824 22.667,177.999 22.667 C 176.816 22.667,176.500 22.891,176.500 23.728 C 176.500 24.374,176.449 24.477,176.083 24.568 C 175.685 24.668,175.667 24.729,175.667 25.920 C 175.667 27.048,175.636 27.167,175.339 27.167 C 174.874 27.167,174.667 27.664,174.667 28.783 C 174.667 29.630,174.619 29.775,174.292 29.919 C 173.961 30.064,173.911 30.223,173.868 31.275 C 173.823 32.377,173.789 32.475,173.418 32.568 C 173.070 32.656,173.009 32.783,172.956 33.543 L 172.895 34.417 172.864 33.375 C 172.821 31.922,171.682 31.017,171.375 32.192 C 171.320 32.402,171.141 32.500,170.814 32.500 C 170.412 32.500,170.333 32.569,170.333 32.917 C 170.333 33.241,170.248 33.333,169.948 33.333 C 169.713 33.333,169.418 33.529,169.193 33.833 C 168.667 34.544,166.667 34.613,166.667 33.920 C 166.667 33.618,166.554 33.478,166.250 33.402 L 165.833 33.297 165.833 27.065 L 165.833 20.833 166.667 20.833 L 167.500 20.833 167.500 19.583 L 167.500 18.333 164.173 18.333 C 160.940 18.333,160.840 18.344,160.654 18.691 M261.833 28.103 L 261.833 37.873 263.428 37.803 C 264.581 37.753,265.065 37.667,265.175 37.492 C 265.395 37.144,265.381 19.068,265.161 18.656 C 265.009 18.372,264.800 18.333,263.411 18.333 L 261.833 18.333 261.833 28.103 M280.500 18.738 C 280.500 19.117,280.430 19.153,279.625 19.200 C 278.863 19.244,278.743 19.298,278.697 19.625 C 278.658 19.896,278.532 20.000,278.238 20.000 C 277.899 20.000,277.833 20.082,277.833 20.500 C 277.833 20.922,277.769 21.000,277.417 21.000 C 277.083 21.000,277.000 21.083,277.000 21.417 C 277.000 21.769,276.922 21.833,276.500 21.833 C 276.084 21.833,276.000 21.900,276.000 22.232 C 276.000 22.518,275.882 22.660,275.583 22.735 C 275.185 22.835,275.167 22.896,275.167 24.083 C 275.167 25.271,275.148 25.332,274.750 25.432 C 274.098 25.595,274.092 29.600,274.743 29.763 C 275.128 29.860,275.156 29.944,275.202 31.141 C 275.246 32.320,275.278 32.421,275.625 32.470 C 275.896 32.508,276.000 32.635,276.000 32.928 C 276.000 33.267,276.082 33.333,276.500 33.333 C 276.897 33.333,277.000 33.405,277.000 33.684 C 277.000 33.877,277.188 34.183,277.417 34.363 C 277.646 34.543,277.833 34.798,277.833 34.929 C 277.833 35.070,277.999 35.167,278.238 35.167 C 278.532 35.167,278.658 35.270,278.697 35.542 C 278.743 35.868,278.863 35.923,279.625 35.967 C 280.431 36.013,280.500 36.050,280.500 36.430 L 280.500 36.842 283.125 36.796 L 285.750 36.750 285.799 35.542 L 285.848 34.333 284.018 34.333 L 282.189 34.333 282.136 33.875 C 282.088 33.455,282.017 33.412,281.292 33.366 C 280.577 33.320,280.500 33.275,280.500 32.908 C 280.500 32.567,280.419 32.500,280.009 32.500 C 279.534 32.500,279.516 32.471,279.467 31.625 C 279.423 30.863,279.368 30.743,279.042 30.697 C 278.668 30.644,278.667 30.630,278.667 27.590 L 278.667 24.536 279.083 24.432 C 279.457 24.338,279.500 24.243,279.500 23.508 C 279.500 22.738,279.528 22.686,279.958 22.636 C 280.287 22.598,280.432 22.477,280.470 22.208 C 280.508 21.937,280.635 21.833,280.928 21.833 C 281.267 21.833,281.333 21.752,281.333 21.333 L 281.333 20.833 283.989 20.833 L 286.645 20.833 286.697 21.292 C 286.739 21.652,286.848 21.761,287.208 21.803 C 287.568 21.844,287.667 21.942,287.667 22.261 C 287.667 22.583,287.753 22.667,288.083 22.667 C 288.417 22.667,288.500 22.750,288.500 23.083 C 288.500 23.553,290.370 23.730,290.800 23.300 C 291.150 22.950,291.036 22.092,290.583 21.667 C 290.354 21.451,290.167 21.188,290.167 21.081 C 290.167 20.974,290.354 20.801,290.583 20.697 C 291.127 20.449,291.215 18.793,290.698 18.517 C 290.525 18.424,288.292 18.349,285.448 18.341 L 280.500 18.327 280.500 18.738 M345.614 18.441 C 345.552 18.504,345.500 19.023,345.500 19.593 C 345.500 20.734,345.587 20.833,346.586 20.833 C 347.071 20.833,347.151 20.893,347.197 21.292 C 347.235 21.620,347.356 21.765,347.625 21.803 C 347.958 21.851,348.000 21.952,348.002 22.720 C 348.005 23.922,348.135 24.289,348.599 24.406 C 348.956 24.495,349.000 24.598,349.000 25.344 C 349.000 26.011,349.083 26.265,349.408 26.590 C 349.717 26.899,349.828 27.209,349.866 27.874 C 349.910 28.637,349.965 28.757,350.292 28.803 C 350.629 28.851,350.667 28.949,350.667 29.778 C 350.667 30.587,350.728 30.757,351.167 31.167 C 351.596 31.568,351.667 31.754,351.667 32.484 C 351.667 33.279,351.693 33.333,352.083 33.333 C 352.493 33.333,352.500 33.356,352.500 34.667 C 352.500 35.741,352.549 36.000,352.750 36.000 C 352.887 36.000,353.000 36.083,353.000 36.184 C 353.000 36.286,353.103 36.329,353.229 36.281 C 353.371 36.227,353.451 36.299,353.438 36.472 C 353.421 36.688,353.588 36.761,354.187 36.800 C 355.020 36.854,355.159 36.689,355.164 35.637 C 355.166 35.301,355.260 35.177,355.542 35.137 C 355.867 35.090,355.923 34.970,355.966 34.231 C 356.008 33.514,356.080 33.350,356.425 33.193 C 356.802 33.021,356.833 32.917,356.833 31.837 C 356.833 30.773,356.864 30.667,357.171 30.667 C 357.604 30.667,357.833 30.070,357.833 28.945 C 357.833 28.207,357.889 28.055,358.208 27.915 C 358.539 27.769,358.589 27.610,358.632 26.560 C 358.685 25.257,358.795 25.159,360.042 25.303 L 360.500 25.355 360.500 29.844 L 360.500 34.333 360.076 34.333 C 359.527 34.333,358.833 35.031,358.833 35.583 C 358.833 35.821,359.017 36.199,359.242 36.424 L 359.652 36.833 363.565 36.833 L 367.478 36.833 367.547 36.375 L 367.617 35.917 367.642 36.375 L 367.667 36.833 370.063 36.833 C 372.863 36.833,372.875 36.827,372.800 35.389 L 372.750 34.417 371.958 34.366 L 371.167 34.315 371.167 32.908 C 371.167 31.517,371.172 31.500,371.583 31.500 C 371.873 31.500,372.000 31.591,372.000 31.800 C 372.000 32.184,372.316 32.500,372.700 32.500 C 372.931 32.500,373.000 32.632,373.000 33.071 C 373.000 33.606,373.342 34.167,373.668 34.167 C 373.747 34.167,373.835 34.373,373.864 34.625 C 373.902 34.953,374.023 35.098,374.292 35.137 C 374.563 35.175,374.667 35.302,374.667 35.595 C 374.667 35.934,374.748 36.000,375.167 36.000 C 375.589 36.000,375.667 36.065,375.667 36.417 L 375.667 36.833 378.659 36.833 L 381.652 36.833 381.755 36.284 C 381.975 35.111,381.799 34.428,381.250 34.320 L 380.750 34.222 381.250 34.152 C 381.725 34.087,381.752 34.040,381.800 33.208 L 381.851 32.333 383.175 32.333 L 384.500 32.333 384.500 32.833 C 384.500 33.256,384.565 33.333,384.917 33.333 C 385.269 33.333,385.333 33.411,385.333 33.833 C 385.333 34.258,385.269 34.333,384.909 34.333 C 384.490 34.333,384.486 34.346,384.534 35.542 L 384.583 36.750 387.106 36.796 L 389.628 36.842 389.738 36.404 L 389.848 35.967 390.254 36.405 C 390.841 37.039,395.046 37.013,395.137 36.375 C 395.175 36.104,395.302 36.000,395.595 36.000 C 395.916 36.000,396.000 35.913,396.000 35.583 C 396.000 35.250,396.083 35.167,396.417 35.167 L 396.833 35.167 396.831 32.792 C 396.828 30.091,396.800 30.009,395.857 29.882 C 395.268 29.803,395.167 29.732,395.167 29.395 C 395.167 29.067,395.081 29.000,394.667 29.000 C 394.250 29.000,394.167 28.933,394.167 28.601 C 394.167 28.150,393.893 28.000,393.070 28.000 C 392.573 28.000,392.500 27.947,392.500 27.583 C 392.500 27.231,392.422 27.167,392.000 27.167 C 391.556 27.167,391.500 27.111,391.500 26.667 C 391.500 26.245,391.565 26.167,391.913 26.167 C 392.216 26.167,392.355 26.054,392.432 25.750 C 392.527 25.370,392.615 25.333,393.435 25.333 L 394.333 25.333 394.333 25.885 C 394.333 26.638,394.629 26.954,395.417 27.043 C 396.776 27.196,396.833 27.107,396.833 24.857 C 396.833 22.477,397.124 22.672,393.575 22.669 C 390.983 22.667,390.667 22.743,390.667 23.367 C 390.667 23.576,390.540 23.667,390.250 23.667 C 389.917 23.667,389.833 23.750,389.833 24.083 C 389.833 24.417,389.750 24.500,389.417 24.500 L 389.000 24.500 389.000 26.761 C 389.000 29.022,389.131 29.667,389.589 29.667 C 389.723 29.667,389.833 29.802,389.833 29.967 C 389.833 30.448,390.182 30.667,390.950 30.667 C 391.603 30.667,391.667 30.703,391.667 31.083 C 391.667 31.471,391.723 31.500,392.489 31.500 C 393.262 31.500,393.314 31.527,393.364 31.958 C 393.405 32.318,393.515 32.428,393.875 32.469 C 394.312 32.520,394.333 32.564,394.333 33.428 L 394.333 34.333 392.917 34.333 L 391.500 34.333 391.500 33.833 C 391.500 33.411,391.435 33.333,391.083 33.333 C 390.750 33.333,390.667 33.250,390.667 32.917 C 390.667 32.544,390.599 32.500,390.020 32.500 C 389.643 32.500,389.286 32.394,389.162 32.244 C 388.905 31.934,388.233 32.459,388.115 33.062 C 388.077 33.257,388.035 32.954,388.023 32.389 C 387.995 31.133,387.891 30.833,387.482 30.833 C 387.215 30.833,387.164 30.700,387.150 29.958 C 387.126 28.714,386.968 28.259,386.535 28.197 C 386.207 28.149,386.167 28.045,386.167 27.238 C 386.167 26.384,386.143 26.333,385.750 26.333 C 385.340 26.333,385.333 26.311,385.333 25.000 C 385.333 23.705,385.322 23.667,384.935 23.667 C 384.649 23.667,384.507 23.549,384.432 23.253 C 384.080 21.847,381.833 22.903,381.833 24.474 C 381.833 25.213,381.791 25.308,381.417 25.402 C 381.032 25.498,381.000 25.580,381.000 26.483 C 381.000 27.144,380.920 27.526,380.752 27.665 C 380.615 27.778,380.552 27.949,380.611 28.045 C 380.677 28.151,380.636 28.168,380.507 28.088 C 380.166 27.877,380.005 28.334,380.003 29.524 C 380.000 30.564,379.975 30.637,379.583 30.735 C 379.186 30.835,379.167 30.897,379.167 32.068 C 379.167 33.240,379.147 33.302,378.750 33.402 C 378.446 33.478,378.333 33.618,378.333 33.920 C 378.333 34.268,378.255 34.333,377.833 34.333 C 377.363 34.333,377.333 34.295,377.333 33.679 C 377.333 33.061,377.010 32.500,376.655 32.500 C 376.570 32.500,376.500 32.313,376.500 32.083 C 376.500 31.731,376.422 31.667,376.000 31.667 C 375.505 31.667,375.321 30.956,375.490 29.699 C 375.526 29.429,376.107 28.833,376.333 28.833 C 376.557 28.833,376.552 25.242,376.327 24.822 C 376.233 24.645,376.008 24.500,375.827 24.500 C 375.589 24.500,375.500 24.386,375.500 24.083 C 375.500 23.696,375.443 23.667,374.685 23.667 C 373.955 23.667,373.859 23.623,373.766 23.253 C 373.625 22.693,373.339 22.647,370.333 22.702 L 367.750 22.750 367.653 23.750 L 367.556 24.750 367.528 23.809 C 367.495 22.709,367.436 22.667,365.911 22.667 L 364.848 22.667 365.224 22.291 C 365.430 22.085,365.802 21.783,366.050 21.621 C 366.664 21.218,366.714 19.836,366.130 19.426 C 365.055 18.673,363.167 19.353,363.167 20.492 C 363.167 20.923,363.103 21.000,362.750 21.000 C 362.361 21.000,362.333 21.056,362.333 21.833 L 362.333 22.667 361.375 22.667 L 360.417 22.667 360.473 21.759 L 360.530 20.850 361.307 20.800 L 362.083 20.750 362.083 19.583 L 362.083 18.417 359.355 18.371 C 356.188 18.317,356.167 18.326,356.167 19.598 C 356.167 20.591,356.394 20.833,357.322 20.833 C 357.779 20.833,357.833 20.887,357.833 21.333 C 357.833 21.756,357.769 21.833,357.417 21.833 C 357.007 21.833,357.000 21.856,357.000 23.156 C 357.000 24.474,356.999 24.478,356.542 24.531 C 356.114 24.580,356.080 24.642,356.033 25.459 C 355.995 26.112,355.878 26.447,355.575 26.775 C 355.256 27.118,355.167 27.396,355.167 28.037 C 355.167 28.725,355.087 28.939,354.674 29.352 L 354.181 29.845 354.132 28.547 C 354.087 27.346,354.056 27.246,353.708 27.197 C 353.372 27.149,353.333 27.050,353.333 26.231 C 353.333 25.480,353.260 25.245,352.917 24.902 C 352.603 24.588,352.500 24.310,352.500 23.776 C 352.500 23.015,352.280 22.667,351.800 22.667 C 351.222 22.667,351.375 20.870,351.958 20.803 C 352.410 20.751,352.417 20.732,352.417 19.583 L 352.417 18.417 349.073 18.372 C 347.234 18.347,345.677 18.378,345.614 18.441 M77.841 18.995 C 77.724 19.067,77.688 19.306,77.749 19.599 L 77.851 20.083 77.581 19.614 C 77.301 19.126,77.501 18.544,77.870 18.773 C 77.975 18.837,77.964 18.919,77.841 18.995 M14.768 19.430 C 14.712 19.575,14.667 19.763,14.667 19.847 C 14.667 19.931,14.592 20.000,14.500 20.000 C 14.408 20.000,14.333 19.813,14.333 19.583 C 14.333 19.312,14.427 19.167,14.601 19.167 C 14.777 19.167,14.834 19.257,14.768 19.430 M346.298 19.663 C 346.258 19.935,346.289 20.192,346.367 20.233 C 346.445 20.275,346.413 20.289,346.296 20.265 C 346.179 20.242,346.091 20.135,346.100 20.028 C 346.109 19.921,346.128 19.683,346.142 19.500 C 346.155 19.317,346.213 19.167,346.269 19.167 C 346.325 19.167,346.338 19.390,346.298 19.663 M92.948 22.458 C 92.906 22.619,92.872 22.488,92.872 22.167 C 92.872 21.846,92.906 21.715,92.948 21.875 C 92.990 22.035,92.990 22.298,92.948 22.458 M365.238 21.814 C 365.289 21.896,365.222 22.051,365.091 22.160 C 364.896 22.322,364.857 22.295,364.878 22.013 C 364.905 21.654,365.080 21.558,365.238 21.814 M34.333 23.164 C 34.333 23.662,34.325 23.667,33.417 23.667 C 32.550 23.667,32.500 23.689,32.500 24.083 C 32.500 24.417,32.417 24.500,32.083 24.500 C 31.750 24.500,31.667 24.583,31.667 24.917 C 31.667 25.207,31.576 25.333,31.367 25.333 C 30.885 25.333,30.667 25.682,30.667 26.450 C 30.667 26.844,30.597 27.167,30.512 27.167 C 29.686 27.167,29.467 31.149,30.250 31.932 C 30.479 32.161,30.667 32.486,30.667 32.653 C 30.667 33.468,30.888 34.007,31.262 34.101 C 31.524 34.167,31.664 34.340,31.699 34.641 C 31.733 34.937,31.862 35.099,32.088 35.132 C 32.275 35.158,32.500 35.346,32.588 35.548 C 32.717 35.840,32.912 35.927,33.533 35.967 C 34.136 36.006,34.340 36.092,34.419 36.342 C 34.637 37.028,40.373 37.059,40.470 36.375 C 40.517 36.044,40.620 36.000,41.345 36.000 L 42.167 36.000 42.167 33.750 L 42.167 31.500 42.667 31.500 C 43.156 31.500,43.167 31.482,43.167 30.659 C 43.167 29.285,41.977 28.498,41.556 29.594 C 41.401 30.000,39.469 29.922,39.205 29.500 C 38.688 28.672,37.763 29.571,37.866 30.802 C 37.906 31.294,37.992 31.427,38.292 31.470 C 38.647 31.520,38.667 31.598,38.667 32.928 L 38.667 34.333 37.351 34.333 C 36.092 34.333,36.032 34.316,35.933 33.922 C 35.846 33.575,35.700 33.494,34.998 33.401 L 34.167 33.290 34.167 32.479 C 34.167 31.724,34.137 31.667,33.750 31.667 L 33.333 31.667 33.333 29.417 L 33.333 27.167 33.750 27.167 C 34.102 27.167,34.167 27.089,34.167 26.667 C 34.167 26.222,34.222 26.167,34.667 26.167 C 35.089 26.167,35.167 26.102,35.167 25.750 L 35.167 25.333 37.417 25.333 L 39.667 25.333 39.667 25.750 C 39.667 26.083,39.750 26.167,40.083 26.167 C 40.416 26.167,40.500 26.250,40.500 26.580 C 40.500 27.027,40.959 27.242,41.691 27.139 C 42.080 27.084,42.083 27.065,42.083 24.917 L 42.083 22.750 38.208 22.705 L 34.333 22.661 34.333 23.164 M46.873 22.860 C 46.760 22.974,46.667 23.384,46.667 23.772 C 46.667 24.376,46.613 24.484,46.292 24.530 C 45.945 24.579,45.913 24.680,45.868 25.875 C 45.821 27.123,45.805 27.167,45.410 27.167 C 45.009 27.167,45.000 27.195,45.000 28.500 C 45.000 29.795,44.989 29.833,44.601 29.833 C 44.116 29.833,44.000 30.101,44.000 31.224 C 44.000 31.951,43.934 32.137,43.583 32.400 C 43.239 32.659,43.167 32.854,43.167 33.523 C 43.167 34.276,43.137 34.333,42.750 34.333 C 42.274 34.333,42.098 36.267,42.542 36.630 C 43.017 37.019,45.403 36.849,45.897 36.391 C 46.700 35.646,46.830 34.627,46.149 34.411 C 45.685 34.264,45.726 33.459,46.208 33.248 C 46.509 33.116,46.593 32.926,46.634 32.292 L 46.685 31.500 48.002 31.500 L 49.319 31.500 49.368 32.791 C 49.416 34.075,49.419 34.081,49.917 34.187 C 50.411 34.293,50.411 34.294,49.969 34.314 C 48.588 34.374,48.229 35.237,49.140 36.303 C 49.734 36.998,50.875 37.043,50.970 36.375 C 51.050 35.812,51.949 35.844,52.167 36.417 C 52.571 37.480,54.499 36.509,54.500 35.242 C 54.500 34.570,54.233 34.333,53.474 34.333 L 52.847 34.333 52.799 33.042 C 52.754 31.846,52.722 31.746,52.375 31.697 C 52.042 31.649,52.000 31.548,51.998 30.780 C 51.995 29.634,51.863 29.198,51.482 29.078 C 51.230 28.997,51.167 28.816,51.167 28.166 C 51.167 27.141,50.948 26.559,50.510 26.420 C 50.219 26.327,50.167 26.173,50.167 25.405 C 50.167 24.556,50.141 24.500,49.759 24.500 C 49.384 24.500,49.347 24.429,49.300 23.625 L 49.250 22.750 48.165 22.702 C 47.465 22.670,47.007 22.727,46.873 22.860 M293.111 22.778 C 293.050 22.839,293.000 23.251,293.000 23.694 C 293.000 24.392,292.955 24.500,292.663 24.500 C 292.227 24.500,292.000 25.098,292.000 26.249 C 292.000 27.050,291.961 27.149,291.625 27.197 C 291.279 27.246,291.246 27.347,291.202 28.518 C 291.157 29.681,291.120 29.801,290.743 29.973 C 290.365 30.145,290.333 30.249,290.333 31.312 C 290.333 32.398,290.310 32.470,289.922 32.567 C 289.575 32.654,289.494 32.800,289.401 33.502 C 289.303 34.235,289.243 34.333,288.895 34.333 C 288.455 34.333,288.303 35.820,288.673 36.511 C 288.939 37.008,292.007 36.993,292.508 36.492 C 293.024 35.976,292.920 34.441,292.365 34.362 L 291.979 34.307 292.406 33.912 C 292.774 33.571,292.833 33.376,292.833 32.508 L 292.833 31.500 294.250 31.500 L 295.667 31.500 295.667 32.822 C 295.667 34.137,295.669 34.145,296.125 34.214 L 296.583 34.283 296.125 34.308 C 295.676 34.333,295.667 34.355,295.667 35.383 C 295.667 36.887,296.576 37.400,297.500 36.417 C 297.986 35.900,298.294 35.885,298.363 36.375 C 298.412 36.720,298.503 36.750,299.500 36.750 C 300.464 36.750,300.602 36.709,300.748 36.375 C 300.994 35.813,301.833 35.845,301.833 36.417 L 301.833 36.833 303.675 36.833 C 305.404 36.833,305.538 36.809,305.887 36.433 C 306.091 36.213,306.443 36.007,306.670 35.975 C 306.945 35.936,307.101 35.794,307.135 35.552 C 307.168 35.325,307.325 35.168,307.552 35.135 C 308.112 35.055,308.214 30.762,307.659 30.616 C 307.466 30.566,307.268 30.369,307.218 30.179 C 307.153 29.930,306.993 29.833,306.647 29.833 C 306.246 29.833,306.167 29.765,306.167 29.417 C 306.167 29.083,306.083 29.000,305.750 29.000 C 305.447 29.000,305.333 28.911,305.333 28.673 C 305.333 28.258,304.858 28.000,304.094 28.000 C 303.571 28.000,303.500 27.950,303.500 27.583 C 303.500 27.250,303.417 27.167,303.083 27.167 C 302.689 27.167,302.667 27.117,302.667 26.250 L 302.667 25.333 303.979 25.333 L 305.290 25.333 305.401 26.167 C 305.484 26.796,305.581 27.001,305.797 27.006 C 305.955 27.009,306.533 27.037,307.083 27.067 C 308.573 27.149,308.833 27.003,308.833 26.087 L 308.833 25.333 310.250 25.333 L 311.667 25.333 311.667 29.833 L 311.667 34.333 311.033 34.333 C 310.267 34.333,310.000 34.568,310.000 35.242 C 310.001 36.509,311.929 37.480,312.333 36.417 C 312.420 36.187,312.588 36.000,312.706 36.000 C 312.824 36.000,313.062 36.188,313.234 36.417 C 313.701 37.039,314.772 37.016,315.015 36.377 C 315.110 36.126,315.333 35.786,315.511 35.621 C 316.074 35.096,315.575 34.333,314.667 34.333 L 314.167 34.333 314.167 29.833 L 314.167 25.333 315.066 25.333 C 316.060 25.333,317.000 25.964,317.000 26.632 C 317.000 27.042,317.637 27.233,318.238 27.004 L 318.667 26.842 318.667 30.576 L 318.667 34.310 318.292 34.363 C 317.857 34.425,317.732 36.132,318.133 36.533 C 318.535 36.935,320.241 36.810,320.303 36.375 C 320.333 36.169,320.409 36.000,320.472 36.000 C 320.536 36.000,320.662 36.169,320.752 36.375 C 320.931 36.784,322.340 36.995,322.816 36.685 C 323.316 36.359,323.157 34.425,322.625 34.364 L 322.167 34.311 322.180 32.697 C 322.187 31.810,322.231 31.177,322.277 31.292 C 322.323 31.406,322.542 31.500,322.764 31.500 C 323.121 31.500,323.167 31.573,323.167 32.155 C 323.167 32.772,323.490 33.333,323.845 33.333 C 323.930 33.333,324.000 33.521,324.000 33.750 C 324.000 34.102,324.078 34.167,324.500 34.167 C 324.995 34.167,325.000 34.176,325.000 35.083 L 325.000 36.000 325.917 36.000 C 326.611 36.000,326.833 36.059,326.833 36.244 C 326.833 36.604,327.378 36.833,328.233 36.833 C 329.092 36.833,329.333 36.568,329.333 35.623 C 329.333 34.931,330.268 34.873,330.366 35.559 C 330.408 35.859,330.545 35.925,331.207 35.967 C 331.887 36.011,332.013 36.075,332.101 36.426 L 332.203 36.833 334.682 36.833 L 337.160 36.833 337.265 36.417 C 337.357 36.051,337.459 36.000,338.105 36.000 C 338.724 36.000,338.870 35.935,339.026 35.592 C 339.129 35.367,339.371 35.161,339.565 35.134 C 339.807 35.099,339.933 34.943,339.968 34.635 C 340.005 34.322,340.130 34.172,340.385 34.135 C 340.692 34.092,340.758 33.960,340.800 33.308 C 340.843 32.645,340.909 32.517,341.256 32.430 C 341.797 32.294,341.855 31.972,341.798 29.417 L 341.750 27.250 341.292 27.197 C 340.854 27.147,340.833 27.103,340.833 26.239 C 340.833 25.384,340.810 25.333,340.417 25.333 C 340.083 25.333,340.000 25.250,340.000 24.917 C 340.000 24.583,339.917 24.500,339.583 24.500 C 339.250 24.500,339.167 24.417,339.167 24.083 C 339.167 23.731,339.089 23.667,338.667 23.667 C 338.251 23.667,338.167 23.600,338.167 23.269 C 338.167 22.719,337.883 22.672,334.555 22.669 C 331.364 22.666,331.167 22.701,331.167 23.268 C 331.167 23.582,331.078 23.667,330.750 23.667 C 330.417 23.667,330.333 23.750,330.333 24.083 C 330.333 24.435,330.256 24.500,329.833 24.500 C 329.411 24.500,329.333 24.565,329.333 24.917 C 329.333 25.250,329.250 25.333,328.917 25.333 C 328.567 25.333,328.500 25.412,328.500 25.822 C 328.500 26.201,328.416 26.322,328.125 26.363 C 327.752 26.416,327.750 26.432,327.750 29.417 C 327.750 32.401,327.752 32.417,328.125 32.470 C 328.410 32.510,328.500 32.633,328.500 32.983 C 328.500 33.399,328.452 33.435,328.000 33.369 C 327.560 33.304,327.500 33.229,327.500 32.743 C 327.500 32.224,327.154 31.667,326.832 31.667 C 326.753 31.667,326.665 31.460,326.636 31.208 C 326.598 30.880,326.477 30.735,326.208 30.697 C 325.659 30.619,325.691 29.905,326.250 29.765 L 326.667 29.660 326.667 27.080 L 326.667 24.500 326.250 24.500 C 325.917 24.500,325.833 24.417,325.833 24.083 C 325.833 23.731,325.756 23.667,325.333 23.667 C 324.912 23.667,324.833 23.601,324.833 23.253 C 324.833 22.643,325.062 22.654,313.000 22.704 L 301.917 22.750 301.864 23.208 C 301.822 23.569,301.724 23.667,301.404 23.667 C 301.180 23.667,300.773 23.881,300.498 24.143 L 300.000 24.619 300.000 26.964 C 300.000 29.379,300.119 29.833,300.750 29.833 C 300.875 29.833,301.001 30.002,301.030 30.208 C 301.075 30.527,301.200 30.591,301.865 30.634 C 302.523 30.676,302.654 30.741,302.698 31.050 C 302.743 31.367,302.869 31.424,303.625 31.467 C 304.471 31.516,304.500 31.534,304.500 32.009 C 304.500 32.422,304.566 32.500,304.917 32.500 C 305.490 32.500,305.527 33.283,304.958 33.363 C 304.690 33.402,304.568 33.547,304.531 33.875 C 304.480 34.312,304.435 34.333,303.583 34.333 C 302.731 34.333,302.686 34.312,302.636 33.875 C 302.598 33.547,302.477 33.402,302.208 33.363 C 301.935 33.325,301.833 33.199,301.833 32.897 C 301.833 31.786,299.872 31.184,299.394 32.148 L 299.196 32.547 299.140 32.148 C 299.098 31.855,298.962 31.736,298.625 31.697 C 298.168 31.645,298.167 31.641,298.167 30.322 C 298.167 29.029,298.158 29.000,297.757 29.000 C 297.361 29.000,297.346 28.956,297.299 27.708 C 297.254 26.513,297.222 26.413,296.875 26.363 C 296.537 26.315,296.500 26.218,296.498 25.363 C 296.494 24.013,296.372 23.667,295.897 23.667 C 295.567 23.667,295.500 23.582,295.500 23.167 L 295.500 22.667 294.361 22.667 C 293.735 22.667,293.172 22.717,293.111 22.778 M382.732 23.238 C 382.664 23.415,382.735 23.451,383.013 23.378 C 383.273 23.310,383.349 23.340,383.265 23.476 C 383.198 23.584,383.079 23.632,383.000 23.583 C 382.921 23.535,382.811 23.568,382.756 23.657 C 382.701 23.746,382.543 23.775,382.404 23.722 C 382.184 23.638,382.188 23.585,382.435 23.313 C 382.774 22.938,382.854 22.918,382.732 23.238 M207.333 23.583 C 206.845 23.862,206.435 23.907,206.585 23.664 C 206.643 23.571,206.744 23.528,206.811 23.570 C 206.878 23.611,207.042 23.576,207.175 23.492 C 207.308 23.407,207.492 23.340,207.583 23.342 C 207.675 23.344,207.563 23.452,207.333 23.583 M23.667 25.750 C 23.667 26.139,23.722 26.167,24.508 26.167 C 25.182 26.167,25.431 26.084,25.765 25.750 C 25.994 25.521,26.216 25.333,26.258 25.333 C 26.299 25.333,26.320 27.377,26.304 29.875 C 26.288 32.373,26.246 34.081,26.209 33.670 C 26.173 33.259,26.065 32.828,25.968 32.712 C 25.761 32.462,24.429 32.417,24.582 32.665 C 24.641 32.760,24.573 32.787,24.423 32.729 C 23.999 32.567,23.667 32.988,23.667 33.687 L 23.667 34.333 22.250 34.333 L 20.833 34.333 20.833 32.500 L 20.833 30.667 21.750 30.667 C 22.617 30.667,22.667 30.689,22.667 31.083 C 22.667 31.493,22.689 31.500,24.000 31.500 L 25.333 31.500 25.333 29.844 C 25.333 27.779,25.186 27.333,24.506 27.333 C 24.183 27.333,23.928 27.453,23.795 27.667 C 23.614 27.956,23.406 28.000,22.210 28.000 L 20.833 28.000 20.833 26.667 L 20.833 25.333 22.250 25.333 C 23.650 25.333,23.667 25.338,23.667 25.750 M25.659 25.593 C 25.415 25.887,25.390 25.889,25.286 25.617 C 25.237 25.490,25.337 25.391,25.531 25.377 C 25.798 25.357,25.822 25.396,25.659 25.593 M141.000 25.750 C 141.000 26.080,141.084 26.167,141.406 26.167 C 141.724 26.167,141.823 26.265,141.864 26.625 C 141.913 27.049,141.972 27.083,142.667 27.083 L 143.417 27.083 143.467 26.208 C 143.516 25.362,143.534 25.333,144.009 25.333 L 144.500 25.333 144.500 29.833 L 144.500 34.333 144.000 34.333 C 143.534 34.333,143.500 34.291,143.497 33.708 C 143.493 32.586,142.783 32.177,142.108 32.906 C 141.825 33.211,141.541 33.333,141.118 33.333 C 140.505 33.333,140.000 33.678,140.000 34.095 C 140.000 34.628,137.365 34.413,137.303 33.875 C 137.265 33.551,137.143 33.401,136.885 33.365 C 136.658 33.332,136.501 33.175,136.469 32.948 C 136.432 32.690,136.282 32.568,135.958 32.531 L 135.500 32.478 135.500 29.656 C 135.500 26.753,135.640 26.167,136.333 26.167 C 136.425 26.167,136.500 26.089,136.500 25.993 C 136.500 25.460,136.927 25.346,138.958 25.340 L 141.000 25.333 141.000 25.750 M202.333 25.833 C 202.333 26.250,202.267 26.333,201.934 26.333 C 201.483 26.333,201.333 26.607,201.333 27.430 C 201.333 27.927,201.280 28.000,200.917 28.000 C 200.565 28.000,200.500 28.078,200.500 28.500 C 200.500 28.922,200.435 29.000,200.083 29.000 C 199.750 29.000,199.667 29.083,199.667 29.417 C 199.667 29.720,199.577 29.833,199.339 29.833 C 198.925 29.833,198.667 30.309,198.667 31.072 C 198.667 31.595,198.617 31.667,198.250 31.667 C 197.917 31.667,197.833 31.750,197.833 32.083 C 197.833 32.414,197.749 32.500,197.428 32.500 C 197.109 32.500,197.011 32.598,196.969 32.958 C 196.932 33.282,196.810 33.432,196.552 33.469 C 196.333 33.500,196.159 33.666,196.116 33.885 C 196.077 34.086,196.035 32.538,196.023 30.446 C 196.002 26.989,196.024 26.667,196.262 26.905 C 196.765 27.408,197.833 27.068,197.833 26.405 C 197.833 26.262,198.000 26.167,198.250 26.167 C 198.583 26.167,198.667 26.083,198.667 25.750 L 198.667 25.333 200.500 25.333 L 202.333 25.333 202.333 25.833 M207.637 29.875 C 207.620 32.373,207.579 34.061,207.544 33.626 C 207.455 32.501,206.225 32.028,205.917 33.000 C 205.849 33.213,205.664 33.333,205.405 33.333 C 205.066 33.333,205.000 33.415,205.000 33.833 L 205.000 34.333 202.458 34.314 C 201.060 34.303,200.048 34.260,200.208 34.218 C 200.385 34.172,200.500 33.983,200.500 33.738 C 200.500 33.417,200.587 33.333,200.917 33.333 C 201.247 33.333,201.333 33.249,201.333 32.928 C 201.333 32.635,201.437 32.508,201.708 32.470 C 201.968 32.433,202.099 32.286,202.133 31.995 C 202.161 31.751,202.337 31.505,202.549 31.411 C 202.796 31.303,202.968 31.020,203.072 30.549 C 203.187 30.031,203.317 29.836,203.572 29.799 C 203.808 29.765,203.933 29.606,203.969 29.292 C 204.011 28.932,204.109 28.833,204.428 28.833 C 204.750 28.833,204.833 28.747,204.833 28.413 C 204.833 28.124,204.957 27.945,205.227 27.842 C 205.621 27.692,205.827 27.249,205.831 26.542 C 205.833 26.253,205.930 26.167,206.250 26.167 C 206.583 26.167,206.667 26.083,206.667 25.750 C 206.667 25.398,206.744 25.333,207.167 25.333 L 207.667 25.333 207.637 29.875 M221.000 25.750 C 221.000 26.081,221.084 26.167,221.409 26.167 C 221.802 26.167,221.821 26.216,221.868 27.375 C 221.911 28.444,221.960 28.602,222.292 28.748 C 222.814 28.977,222.867 30.833,222.351 30.833 C 221.940 30.833,221.833 31.146,221.833 32.347 C 221.833 33.311,221.823 33.333,221.375 33.336 C 220.582 33.340,220.198 33.518,220.094 33.932 C 219.936 34.561,217.424 34.552,217.266 33.922 C 217.179 33.576,217.033 33.494,216.338 33.402 L 215.514 33.292 215.465 32.104 C 215.421 31.017,215.385 30.912,215.042 30.863 C 214.651 30.808,214.437 28.833,214.821 28.833 C 215.261 28.833,215.500 28.271,215.500 27.238 L 215.500 26.167 216.000 26.167 C 216.422 26.167,216.500 26.102,216.500 25.750 L 216.500 25.333 218.750 25.333 L 221.000 25.333 221.000 25.750 M323.167 25.750 C 323.167 26.083,323.250 26.167,323.583 26.167 C 323.976 26.167,324.000 26.218,324.000 27.068 L 324.000 27.969 323.083 28.026 L 322.166 28.083 322.166 26.708 L 322.167 25.333 322.667 25.333 C 323.089 25.333,323.167 25.398,323.167 25.750 M336.530 25.708 C 336.564 25.946,336.717 26.102,336.948 26.135 C 337.204 26.172,337.329 26.322,337.365 26.635 C 337.405 26.984,337.518 27.095,337.875 27.136 L 338.333 27.189 338.333 29.844 L 338.333 32.500 337.833 32.500 C 337.411 32.500,337.333 32.565,337.333 32.917 C 337.333 33.250,337.250 33.333,336.917 33.333 C 336.688 33.333,336.500 33.421,336.500 33.529 C 336.500 34.131,335.969 34.333,334.391 34.333 L 332.833 34.333 332.833 33.833 C 332.833 33.411,332.769 33.333,332.417 33.333 C 332.083 33.333,332.000 33.250,332.000 32.917 C 332.000 32.583,331.917 32.500,331.583 32.500 L 331.167 32.500 331.167 29.851 L 331.167 27.203 331.583 27.098 C 331.888 27.022,332.000 26.882,332.000 26.580 C 332.000 26.250,332.084 26.167,332.417 26.167 C 332.750 26.167,332.833 26.083,332.833 25.750 L 332.833 25.333 334.655 25.333 C 336.417 25.333,336.479 25.346,336.530 25.708 M365.833 25.750 C 365.833 26.139,365.888 26.167,366.674 26.167 C 367.349 26.167,367.597 26.084,367.932 25.750 C 368.161 25.521,368.383 25.333,368.424 25.333 C 368.466 25.333,368.500 27.211,368.500 29.507 L 368.500 33.680 368.049 33.262 C 367.659 32.900,367.563 32.875,367.341 33.076 C 367.199 33.203,366.821 33.332,366.500 33.362 C 366.004 33.408,365.909 33.485,365.864 33.875 C 365.811 34.332,365.808 34.333,364.489 34.333 L 363.167 34.333 363.167 32.917 L 363.167 31.500 365.339 31.500 L 367.512 31.500 367.464 29.792 L 367.417 28.083 365.292 28.131 L 363.167 28.179 363.167 26.756 L 363.167 25.333 364.500 25.333 C 365.811 25.333,365.833 25.340,365.833 25.750 M372.098 25.750 C 372.173 26.049,372.315 26.167,372.601 26.167 C 372.973 26.167,373.000 26.228,373.000 27.083 C 373.000 27.855,372.953 28.000,372.700 28.000 C 372.316 28.000,372.000 28.316,372.000 28.700 C 372.000 28.909,371.873 29.000,371.583 29.000 L 371.167 29.000 371.167 27.167 L 371.167 25.333 371.580 25.333 C 371.882 25.333,372.022 25.446,372.098 25.750 M29.167 29.436 C 29.167 31.561,29.109 32.651,29.000 32.583 C 28.898 32.520,28.833 31.217,28.833 29.230 C 28.833 27.106,28.891 26.016,29.000 26.083 C 29.102 26.146,29.167 27.449,29.167 29.436 M197.208 26.433 C 197.165 26.590,196.841 26.650,196.622 26.541 C 196.552 26.506,196.534 26.414,196.581 26.337 C 196.696 26.152,197.262 26.238,197.208 26.433 M355.883 27.111 C 355.806 27.312,355.837 27.351,355.997 27.252 C 356.145 27.160,356.178 27.179,356.098 27.310 C 356.031 27.418,355.907 27.462,355.822 27.410 C 355.617 27.283,355.622 26.833,355.828 26.833 C 355.917 26.833,355.942 26.958,355.883 27.111 M47.618 28.708 C 47.578 28.915,47.545 28.746,47.545 28.333 C 47.545 27.921,47.578 27.752,47.618 27.958 C 47.657 28.165,47.657 28.502,47.618 28.708 M215.241 27.953 C 215.301 28.111,215.298 28.187,215.232 28.121 C 215.167 28.056,215.009 28.090,214.881 28.196 C 214.699 28.347,214.659 28.338,214.699 28.153 C 214.740 27.965,214.977 27.683,215.107 27.669 C 215.120 27.668,215.180 27.796,215.241 27.953 M99.550 28.846 C 99.623 28.901,99.573 29.037,99.439 29.148 C 99.250 29.305,99.169 29.305,99.072 29.149 C 98.990 29.016,99.019 28.992,99.159 29.078 C 99.316 29.176,99.338 29.109,99.247 28.813 C 99.176 28.583,99.186 28.486,99.271 28.581 C 99.351 28.672,99.476 28.791,99.550 28.846 M212.037 28.696 C 211.887 28.846,211.889 28.950,212.046 29.139 C 212.225 29.356,212.204 29.359,211.883 29.159 C 211.515 28.929,211.626 28.500,212.054 28.500 C 212.173 28.500,212.167 28.566,212.037 28.696 M364.042 28.618 C 363.835 28.657,363.498 28.657,363.292 28.618 C 363.085 28.578,363.254 28.545,363.667 28.545 C 364.079 28.545,364.248 28.578,364.042 28.618 M364.458 28.953 C 364.206 28.991,363.794 28.991,363.542 28.953 C 363.290 28.915,363.496 28.883,364.000 28.883 C 364.504 28.883,364.710 28.915,364.458 28.953 M383.458 28.948 C 383.298 28.990,383.035 28.990,382.875 28.948 C 382.715 28.906,382.846 28.872,383.167 28.872 C 383.488 28.872,383.619 28.906,383.458 28.948 M39.167 29.826 C 39.167 29.891,39.057 29.944,38.924 29.944 C 38.791 29.944,38.728 29.869,38.785 29.777 C 38.846 29.678,38.776 29.653,38.611 29.716 C 38.458 29.775,38.333 29.756,38.333 29.675 C 38.333 29.444,38.728 29.361,38.958 29.543 C 39.073 29.633,39.167 29.761,39.167 29.826 M364.458 30.619 C 364.206 30.658,363.794 30.658,363.542 30.619 C 363.290 30.581,363.496 30.550,364.000 30.550 C 364.504 30.550,364.710 30.581,364.458 30.619 M30.576 31.512 C 30.523 31.597,30.564 31.667,30.667 31.667 C 30.769 31.667,30.804 31.745,30.745 31.841 C 30.672 31.959,30.555 31.948,30.384 31.806 C 30.220 31.670,30.196 31.573,30.316 31.534 C 30.418 31.499,30.453 31.391,30.392 31.293 C 30.326 31.187,30.361 31.164,30.477 31.236 C 30.584 31.302,30.629 31.426,30.576 31.512 M384.227 31.677 C 384.054 31.741,383.613 31.737,383.248 31.668 C 382.634 31.552,382.659 31.543,383.563 31.551 C 384.136 31.556,384.412 31.609,384.227 31.677 M300.333 32.667 C 300.010 32.875,299.833 32.875,299.833 32.667 C 299.833 32.575,300.002 32.501,300.208 32.503 C 300.512 32.505,300.535 32.536,300.333 32.667 M25.406 33.351 C 25.355 33.433,25.126 33.500,24.897 33.500 C 24.668 33.500,24.525 33.428,24.579 33.341 C 24.633 33.253,24.800 33.228,24.949 33.286 C 25.130 33.355,25.181 33.325,25.102 33.197 C 25.024 33.071,25.072 33.038,25.240 33.103 C 25.382 33.157,25.457 33.269,25.406 33.351 M329.333 34.269 C 329.333 34.305,329.146 34.333,328.917 34.333 C 328.688 34.333,328.500 34.269,328.500 34.190 C 328.500 34.111,328.688 34.082,328.917 34.126 C 329.146 34.170,329.333 34.234,329.333 34.269 M88.564 34.925 C 88.628 35.094,88.596 35.143,88.470 35.065 C 88.341 34.985,88.312 35.037,88.383 35.223 C 88.442 35.375,88.425 35.500,88.346 35.500 C 88.106 35.500,88.014 35.053,88.213 34.854 C 88.449 34.617,88.445 34.617,88.564 34.925 M133.185 35.610 C 132.970 36.083,132.660 35.912,132.681 35.333 C 132.687 35.166,132.732 35.190,132.816 35.404 C 132.933 35.704,132.949 35.705,133.055 35.431 C 133.193 35.072,133.043 34.787,132.796 34.940 C 132.683 35.009,132.664 34.973,132.744 34.843 C 133.020 34.397,133.420 35.094,133.185 35.610 M359.753 34.837 C 359.811 34.931,359.759 34.988,359.637 34.962 C 359.333 34.899,359.250 35.944,359.530 36.303 C 359.728 36.555,359.720 36.560,359.458 36.355 C 359.123 36.091,359.066 35.168,359.367 34.867 C 359.609 34.624,359.620 34.623,359.753 34.837 M128.749 34.998 C 128.807 35.093,128.740 35.121,128.592 35.064 C 128.450 35.009,128.333 35.041,128.333 35.135 C 128.333 35.229,128.427 35.343,128.542 35.390 C 128.692 35.450,128.695 35.477,128.552 35.487 C 128.296 35.504,128.117 35.215,128.250 35.000 C 128.382 34.787,128.618 34.786,128.749 34.998 M161.500 35.200 C 161.500 35.469,161.451 35.517,161.315 35.381 C 161.213 35.279,161.179 35.114,161.241 35.015 C 161.413 34.736,161.500 34.798,161.500 35.200 M315.500 35.073 C 315.500 35.206,315.426 35.359,315.335 35.415 C 315.241 35.474,315.213 35.407,315.270 35.257 C 315.346 35.061,315.294 35.021,315.060 35.097 C 314.804 35.181,314.793 35.167,315.000 35.018 C 315.343 34.772,315.500 34.789,315.500 35.073 M143.833 35.518 C 143.833 35.600,143.740 35.668,143.625 35.669 C 143.484 35.671,143.497 35.729,143.667 35.849 C 143.889 36.006,143.889 36.017,143.667 35.954 C 143.529 35.914,143.440 35.751,143.469 35.591 C 143.505 35.397,143.454 35.342,143.319 35.426 C 143.191 35.504,143.158 35.482,143.230 35.366 C 143.356 35.162,143.833 35.282,143.833 35.518 M359.757 35.626 C 359.731 35.786,359.794 36.029,359.896 36.167 C 360.059 36.384,360.045 36.387,359.792 36.188 C 359.499 35.958,359.367 35.065,359.652 35.241 C 359.735 35.292,359.782 35.466,359.757 35.626 M184.128 35.635 C 184.165 35.744,184.072 35.880,183.923 35.937 C 183.576 36.071,183.464 35.954,183.600 35.600 C 183.717 35.296,184.022 35.316,184.128 35.635 M94.559 35.873 C 94.486 35.991,94.543 36.019,94.717 35.952 C 95.025 35.834,95.265 36.087,95.000 36.250 C 94.905 36.309,94.871 36.425,94.923 36.510 C 94.975 36.595,94.888 36.613,94.725 36.551 C 94.529 36.475,94.503 36.416,94.645 36.368 C 94.788 36.321,94.744 36.219,94.509 36.054 C 94.178 35.822,94.183 35.388,94.514 35.592 C 94.601 35.646,94.621 35.772,94.559 35.873 M101.833 35.677 C 101.833 35.774,101.908 35.807,102.000 35.750 C 102.092 35.693,102.167 35.768,102.167 35.917 C 102.167 36.065,102.242 36.140,102.333 36.083 C 102.605 35.916,102.523 36.107,102.218 36.355 C 101.977 36.550,101.957 36.549,102.079 36.347 C 102.185 36.170,102.152 36.137,101.949 36.214 C 101.800 36.272,101.632 36.246,101.577 36.157 C 101.522 36.068,101.396 36.045,101.296 36.106 C 101.187 36.174,101.163 36.140,101.236 36.023 C 101.302 35.916,101.439 35.879,101.540 35.941 C 101.658 36.014,101.685 35.956,101.617 35.777 C 101.558 35.625,101.583 35.500,101.672 35.500 C 101.761 35.500,101.833 35.579,101.833 35.677 M129.421 35.869 C 129.494 35.804,129.499 35.845,129.432 35.961 C 129.365 36.077,129.237 36.127,129.148 36.072 C 129.059 36.016,128.882 36.057,128.756 36.162 C 128.571 36.315,128.543 36.287,128.615 36.014 C 128.684 35.749,128.768 35.709,128.996 35.831 C 129.158 35.918,129.349 35.935,129.421 35.869 M175.663 36.237 C 175.442 36.458,175.304 36.270,175.436 35.927 C 175.523 35.700,175.576 35.686,175.683 35.860 C 175.758 35.981,175.749 36.151,175.663 36.237 M29.755 36.008 C 29.829 36.127,29.939 36.120,30.102 35.985 C 30.292 35.827,30.322 35.834,30.251 36.022 C 30.201 36.151,30.004 36.355,29.813 36.474 C 29.622 36.594,29.512 36.616,29.569 36.524 C 29.626 36.432,29.596 36.309,29.503 36.252 C 29.290 36.120,29.281 35.833,29.490 35.833 C 29.576 35.833,29.696 35.912,29.755 36.008 M44.925 36.296 C 44.742 36.468,44.673 36.489,44.754 36.347 C 44.853 36.172,44.817 36.137,44.616 36.214 C 44.466 36.272,44.304 36.254,44.255 36.174 C 44.205 36.094,44.353 36.050,44.583 36.075 C 44.812 36.100,45.000 36.044,45.000 35.949 C 45.000 35.855,45.052 35.830,45.115 35.893 C 45.178 35.956,45.093 36.137,44.925 36.296 M96.616 36.072 C 96.405 36.232,96.378 36.320,96.524 36.369 C 96.656 36.413,96.615 36.484,96.413 36.562 C 96.237 36.629,96.147 36.631,96.212 36.566 C 96.277 36.501,96.237 36.332,96.124 36.192 C 96.010 36.051,95.995 35.983,96.091 36.040 C 96.187 36.098,96.375 36.076,96.508 35.992 C 96.878 35.757,96.955 35.815,96.616 36.072 M299.833 36.083 C 300.059 36.355,300.005 36.389,299.597 36.232 C 299.452 36.177,299.333 36.064,299.333 35.982 C 299.333 35.752,299.603 35.806,299.833 36.083 M63.667 36.593 C 63.667 36.919,63.604 37.148,63.528 37.101 C 63.396 37.019,63.465 36.000,63.602 36.000 C 63.638 36.000,63.667 36.267,63.667 36.593 M170.446 36.142 C 170.804 35.846,170.698 36.087,170.321 36.428 C 170.063 36.661,169.989 36.678,170.029 36.495 C 170.059 36.360,169.984 36.271,169.863 36.296 C 169.737 36.322,169.691 36.261,169.756 36.156 C 169.837 36.025,169.923 36.023,170.048 36.148 C 170.173 36.273,170.290 36.272,170.446 36.142 M3.718 43.335 C 3.278 43.512,3.125 44.175,3.198 45.583 L 3.250 46.583 200.058 46.625 L 396.867 46.667 396.808 45.175 C 396.772 44.244,396.669 43.602,396.533 43.466 C 396.274 43.208,4.358 43.076,3.718 43.335 M282.542 55.608 C 282.402 55.666,282.333 56.097,282.333 56.919 C 282.333 58.132,282.329 58.145,281.875 58.197 C 281.445 58.247,281.413 58.306,281.365 59.158 C 281.326 59.854,281.219 60.160,280.907 60.472 C 280.578 60.801,280.500 61.048,280.500 61.761 C 280.500 62.549,280.460 62.649,280.125 62.697 C 279.778 62.746,279.746 62.847,279.702 64.031 C 279.654 65.286,279.644 65.314,279.202 65.365 C 278.880 65.402,278.735 65.525,278.697 65.792 C 278.667 65.998,278.531 66.167,278.394 66.167 C 277.827 66.167,276.981 67.353,277.034 68.073 L 277.083 68.750 279.667 68.798 C 283.001 68.859,283.033 68.851,282.968 67.953 C 282.925 67.370,282.853 67.241,282.542 67.197 C 282.187 67.146,282.167 67.069,282.167 65.738 L 282.167 64.333 283.583 64.333 L 285.000 64.333 285.000 65.250 C 285.000 66.136,285.015 66.167,285.458 66.180 C 285.712 66.187,285.805 66.233,285.667 66.282 C 285.189 66.453,285.000 66.902,285.000 67.865 L 285.000 68.833 293.833 68.833 L 302.667 68.833 302.667 68.425 C 302.667 68.051,302.738 68.013,303.542 67.967 C 304.358 67.920,304.420 67.886,304.469 67.458 C 304.511 67.098,304.609 67.000,304.928 67.000 C 305.249 67.000,305.333 66.914,305.333 66.583 C 305.333 66.250,305.417 66.167,305.750 66.167 C 306.141 66.167,306.167 66.113,306.167 65.298 C 306.167 64.572,306.235 64.373,306.585 64.090 C 306.920 63.817,307.023 63.545,307.108 62.708 C 307.258 61.239,307.951 61.114,308.033 62.542 C 308.080 63.354,308.115 63.420,308.535 63.469 C 308.977 63.520,308.987 63.547,309.035 64.802 C 309.079 65.978,309.114 66.088,309.450 66.135 C 309.766 66.180,309.824 66.307,309.867 67.052 C 309.910 67.804,309.966 67.924,310.292 67.970 C 310.565 68.009,310.667 68.135,310.667 68.435 C 310.667 68.842,310.682 68.847,311.958 68.799 L 313.250 68.750 313.299 67.458 C 313.346 66.211,313.361 66.167,313.757 66.167 C 314.142 66.167,314.167 66.112,314.167 65.261 C 314.167 64.494,314.219 64.339,314.510 64.247 C 314.948 64.108,315.167 63.526,315.167 62.501 C 315.167 61.787,315.211 61.683,315.542 61.637 C 315.889 61.587,315.920 61.487,315.965 60.292 C 316.012 59.044,316.028 59.000,316.424 59.000 C 316.750 59.000,316.833 58.915,316.833 58.583 C 316.833 58.354,316.890 58.167,316.958 58.166 C 317.280 58.166,316.967 60.256,316.584 60.667 C 316.166 61.115,316.118 61.323,316.147 62.538 C 316.164 63.233,316.216 63.339,316.583 63.432 C 316.984 63.532,317.000 63.587,317.000 64.851 C 317.000 66.143,317.007 66.167,317.417 66.167 C 317.750 66.167,317.833 66.250,317.833 66.583 C 317.833 66.914,317.917 67.000,318.239 67.000 C 318.558 67.000,318.656 67.098,318.697 67.458 C 318.739 67.818,318.848 67.928,319.208 67.969 C 319.465 67.999,319.667 68.125,319.667 68.255 C 319.667 69.010,327.181 69.167,327.920 68.428 C 328.143 68.205,328.534 67.999,328.788 67.970 C 329.152 67.928,329.261 67.819,329.303 67.458 C 329.344 67.098,329.442 67.000,329.761 67.000 C 330.083 67.000,330.167 66.914,330.167 66.583 C 330.167 66.272,330.255 66.167,330.516 66.167 C 330.727 66.167,330.900 66.032,330.953 65.827 L 331.042 65.486 331.281 65.827 C 331.412 66.014,331.622 66.167,331.748 66.167 C 331.874 66.167,332.001 66.335,332.030 66.542 C 332.068 66.808,332.214 66.932,332.532 66.968 C 332.878 67.008,332.992 67.122,333.032 67.468 C 333.079 67.875,333.155 67.921,333.865 67.967 C 334.523 68.010,334.654 68.075,334.698 68.384 C 334.750 68.749,334.764 68.750,339.024 68.794 C 343.519 68.841,344.068 68.772,344.327 68.127 C 344.465 67.784,344.480 67.799,344.489 68.296 L 344.500 68.842 347.125 68.796 L 349.750 68.750 349.800 67.979 C 349.843 67.309,349.784 67.143,349.342 66.701 C 348.673 66.032,348.649 65.377,349.292 65.303 C 349.652 65.261,349.761 65.152,349.803 64.792 C 349.853 64.355,349.898 64.333,350.750 64.333 C 351.602 64.333,351.647 64.355,351.697 64.792 C 351.735 65.120,351.856 65.265,352.125 65.303 C 352.690 65.384,352.662 66.515,352.083 66.970 C 351.746 67.235,351.667 67.445,351.667 68.067 L 351.667 68.836 360.875 68.793 L 370.083 68.750 370.137 68.375 C 370.174 68.113,370.303 68.000,370.564 68.000 C 370.786 68.000,371.087 67.797,371.307 67.500 C 371.510 67.225,371.819 67.000,371.993 67.000 C 372.478 67.000,372.833 66.537,372.833 65.905 C 372.833 65.521,372.911 65.333,373.071 65.333 C 373.202 65.333,373.427 65.215,373.571 65.071 C 373.810 64.833,373.833 64.871,373.833 65.488 C 373.833 66.101,373.874 66.167,374.250 66.167 C 374.583 66.167,374.667 66.250,374.667 66.583 C 374.667 66.935,374.744 67.000,375.167 67.000 C 375.611 67.000,375.667 67.056,375.667 67.500 C 375.667 67.918,375.733 68.000,376.072 68.000 C 376.365 68.000,376.492 68.104,376.530 68.375 L 376.583 68.750 380.500 68.750 L 384.417 68.750 384.470 68.375 C 384.513 68.071,384.629 68.000,385.081 68.000 C 385.885 68.000,386.167 67.849,386.167 67.418 C 386.167 67.123,386.279 67.021,386.667 66.964 L 387.167 66.891 387.167 67.865 L 387.167 68.839 391.125 68.795 L 395.083 68.750 395.137 68.375 C 395.175 68.101,395.301 68.000,395.603 68.000 C 396.598 68.000,396.833 67.411,396.833 64.924 L 396.833 62.667 396.417 62.667 C 396.083 62.667,396.000 62.583,396.000 62.250 C 396.000 61.920,395.916 61.833,395.594 61.833 C 395.276 61.833,395.177 61.735,395.136 61.375 C 395.095 61.015,394.985 60.905,394.625 60.864 C 394.265 60.823,394.167 60.724,394.167 60.406 C 394.167 60.030,394.105 60.000,393.333 60.000 C 392.556 60.000,392.500 59.972,392.500 59.583 C 392.500 59.231,392.422 59.167,392.000 59.167 C 391.556 59.167,391.500 59.111,391.500 58.667 C 391.500 58.172,391.509 58.167,392.417 58.167 C 393.283 58.167,393.333 58.189,393.333 58.583 C 393.333 58.935,393.411 59.000,393.833 59.000 C 394.278 59.000,394.333 59.056,394.333 59.500 C 394.333 59.986,394.356 60.000,395.125 59.998 C 396.704 59.993,397.326 59.098,396.422 58.132 C 395.949 57.627,395.881 57.248,396.239 57.111 C 396.783 56.902,396.871 56.356,396.431 55.916 C 395.638 55.123,389.349 55.330,389.086 56.157 C 389.018 56.374,388.835 56.500,388.590 56.500 C 388.149 56.500,388.000 56.778,388.000 57.602 C 388.000 58.446,387.328 58.691,387.084 57.935 C 386.973 57.590,386.791 57.399,386.542 57.363 C 386.270 57.325,386.167 57.198,386.167 56.905 C 386.167 56.531,386.104 56.500,385.344 56.500 C 384.571 56.500,384.519 56.473,384.469 56.042 L 384.417 55.583 380.833 55.536 C 376.712 55.482,376.500 55.509,376.500 56.087 C 376.500 56.416,376.416 56.500,376.083 56.500 C 375.750 56.500,375.667 56.583,375.667 56.917 C 375.667 57.269,375.589 57.333,375.167 57.333 C 374.744 57.333,374.667 57.398,374.667 57.750 C 374.667 58.083,374.583 58.167,374.250 58.167 C 373.855 58.167,373.833 58.217,373.823 59.125 C 373.814 59.895,373.781 60.007,373.656 59.693 C 373.570 59.478,373.349 59.263,373.166 59.215 C 372.931 59.153,372.833 58.987,372.833 58.647 C 372.833 58.246,372.765 58.167,372.417 58.167 C 372.083 58.167,372.000 58.083,372.000 57.750 C 372.000 57.417,371.917 57.333,371.583 57.333 C 371.250 57.333,371.167 57.250,371.167 56.917 C 371.167 56.542,371.100 56.500,370.505 56.500 C 369.963 56.500,369.776 56.410,369.474 56.000 L 369.104 55.500 363.732 55.500 C 357.554 55.500,357.833 55.455,357.833 56.439 C 357.833 57.123,357.868 57.182,358.333 57.275 C 358.673 57.343,358.833 57.474,358.833 57.684 C 358.833 57.875,358.993 58.034,359.250 58.098 L 359.667 58.203 359.667 62.174 C 359.667 66.053,359.659 66.147,359.319 66.255 C 358.676 66.459,357.877 66.197,357.764 65.746 C 357.688 65.446,357.548 65.333,357.247 65.333 C 356.856 65.333,356.833 65.282,356.833 64.409 C 356.833 63.637,356.765 63.420,356.417 63.098 C 356.077 62.783,356.000 62.555,356.000 61.859 C 356.000 61.093,355.958 60.996,355.592 60.904 C 355.242 60.816,355.176 60.690,355.133 60.026 C 355.088 59.321,355.042 59.245,354.632 59.198 C 354.189 59.147,354.179 59.120,354.132 57.865 C 354.087 56.680,354.055 56.579,353.708 56.530 C 353.417 56.489,353.333 56.368,353.333 55.988 L 353.333 55.500 351.583 55.500 L 349.833 55.500 349.833 55.988 C 349.833 56.368,349.750 56.489,349.458 56.530 C 349.112 56.579,349.080 56.680,349.035 57.865 C 348.987 59.120,348.977 59.147,348.535 59.198 C 348.121 59.246,348.079 59.318,348.032 60.065 C 347.994 60.651,347.881 60.960,347.627 61.165 C 347.357 61.384,347.257 61.690,347.201 62.477 C 347.135 63.390,347.082 63.515,346.730 63.603 C 346.358 63.697,346.333 63.778,346.333 64.913 L 346.333 66.124 345.513 66.233 C 345.061 66.292,344.655 66.433,344.609 66.546 C 344.564 66.658,344.520 66.206,344.513 65.542 C 344.500 64.360,344.509 64.333,344.917 64.333 C 345.324 64.333,345.333 64.306,345.333 63.083 L 345.333 61.833 341.826 61.833 L 338.319 61.833 338.368 63.042 L 338.417 64.250 339.208 64.301 L 340.000 64.352 340.000 65.259 L 340.000 66.167 338.620 66.167 C 337.116 66.167,336.687 65.931,336.499 65.000 C 336.438 64.696,336.292 64.569,335.958 64.531 L 335.500 64.478 335.500 62.250 L 335.500 60.022 335.958 59.969 C 336.386 59.920,336.420 59.858,336.467 59.042 L 336.517 58.167 338.759 58.167 L 341.000 58.167 341.000 58.583 C 341.000 58.917,341.083 59.000,341.417 59.000 C 341.769 59.000,341.833 59.078,341.833 59.500 C 341.833 59.940,341.891 60.000,342.314 60.000 C 342.641 60.000,342.820 60.098,342.875 60.308 C 342.972 60.677,343.461 60.833,343.953 60.651 C 344.411 60.482,344.536 59.673,344.468 57.333 L 344.417 55.583 339.583 55.583 L 334.750 55.583 334.697 56.042 C 334.648 56.473,334.595 56.500,333.822 56.500 C 333.062 56.500,333.000 56.531,333.000 56.906 C 333.000 57.224,332.902 57.323,332.542 57.364 C 332.182 57.405,332.072 57.515,332.031 57.875 C 332.000 58.142,331.876 58.333,331.734 58.333 C 331.599 58.333,331.446 58.446,331.394 58.583 C 331.273 58.898,331.000 58.911,331.000 58.601 C 331.000 58.474,330.813 58.322,330.583 58.265 C 330.279 58.188,330.167 58.049,330.167 57.747 C 330.167 57.417,330.082 57.333,329.750 57.333 C 329.417 57.333,329.333 57.250,329.333 56.917 C 329.333 56.523,329.283 56.500,328.417 56.500 C 327.509 56.500,327.500 56.495,327.500 56.000 L 327.500 55.500 324.042 55.517 C 320.190 55.535,319.775 55.594,319.697 56.132 C 319.615 56.694,318.667 56.665,318.667 56.101 C 318.667 55.541,318.458 55.500,315.583 55.500 C 312.489 55.500,312.500 55.497,312.500 56.415 C 312.500 56.992,312.580 57.181,312.917 57.401 C 313.551 57.817,313.554 59.919,312.921 60.040 C 312.441 60.132,312.333 60.058,312.333 59.642 C 312.333 59.459,312.170 59.299,311.917 59.235 C 311.504 59.132,311.500 59.113,311.500 57.312 L 311.500 55.493 308.042 55.538 L 304.583 55.583 304.534 56.083 C 304.463 56.816,302.720 56.764,302.635 56.027 L 302.583 55.583 296.917 55.583 L 291.250 55.583 291.200 56.433 C 291.158 57.161,291.211 57.341,291.573 57.683 L 291.994 58.083 291.997 62.230 L 292.000 66.377 291.375 66.274 C 291.031 66.217,290.619 66.170,290.458 66.169 C 290.216 66.167,290.167 66.011,290.167 65.242 C 290.167 64.479,290.094 64.246,289.750 63.902 C 289.418 63.569,289.333 63.318,289.333 62.659 C 289.333 61.894,289.303 61.833,288.925 61.833 C 288.551 61.833,288.513 61.762,288.467 60.958 C 288.420 60.142,288.386 60.080,287.958 60.031 C 287.504 59.978,287.500 59.966,287.500 58.742 C 287.500 57.570,287.479 57.501,287.091 57.404 C 286.733 57.314,286.677 57.196,286.633 56.442 L 286.583 55.583 284.667 55.552 C 283.612 55.535,282.656 55.560,282.542 55.608 M305.667 57.614 C 305.667 57.745,305.590 57.806,305.497 57.748 C 305.404 57.691,305.371 57.574,305.424 57.488 C 305.477 57.403,305.440 57.333,305.343 57.333 C 305.246 57.333,305.167 57.249,305.167 57.146 C 305.167 57.017,305.244 57.023,305.417 57.167 C 305.554 57.281,305.667 57.482,305.667 57.614 M292.147 57.512 C 291.894 57.668,291.621 57.542,291.753 57.329 C 291.803 57.248,291.960 57.226,292.103 57.280 C 292.305 57.358,292.314 57.409,292.147 57.512 M306.333 59.001 C 306.333 59.711,306.378 59.808,306.750 59.902 C 307.125 59.996,307.165 60.086,307.147 60.795 C 307.137 61.229,307.095 61.459,307.055 61.307 C 307.015 61.156,306.802 60.986,306.581 60.931 C 306.211 60.838,306.178 60.740,306.132 59.624 C 306.087 58.516,306.052 58.412,305.708 58.363 C 305.502 58.334,305.333 58.253,305.333 58.184 C 305.333 58.115,305.558 58.091,305.833 58.131 C 306.309 58.201,306.333 58.243,306.333 59.001 M300.000 58.583 C 300.000 58.933,300.078 59.000,300.490 59.000 C 300.948 59.000,300.984 59.047,301.032 59.708 C 301.072 60.255,301.169 60.454,301.458 60.581 C 301.815 60.738,301.833 60.836,301.833 62.623 L 301.833 64.500 301.417 64.500 C 301.083 64.500,301.000 64.583,301.000 64.917 C 301.000 65.224,300.911 65.333,300.663 65.333 C 300.465 65.333,300.248 65.506,300.136 65.750 C 299.957 66.143,299.872 66.167,298.640 66.167 L 297.333 66.167 297.333 62.167 L 297.333 58.167 298.667 58.167 C 299.978 58.167,300.000 58.174,300.000 58.583 M325.833 58.981 C 325.833 59.665,325.900 59.838,326.250 60.068 C 326.851 60.462,326.892 63.347,326.304 63.823 C 326.023 64.051,325.925 64.347,325.867 65.142 L 325.793 66.167 323.990 66.167 L 322.186 66.167 322.135 65.458 C 322.095 64.911,321.998 64.713,321.708 64.585 C 321.170 64.349,321.114 59.833,321.649 59.833 C 322.020 59.833,322.167 59.522,322.167 58.736 L 322.167 58.167 324.000 58.167 L 325.833 58.167 325.833 58.981 M366.697 58.542 C 366.735 58.808,366.880 58.932,367.198 58.968 C 367.545 59.008,367.658 59.122,367.698 59.468 C 367.735 59.786,367.859 59.932,368.125 59.970 C 368.496 60.023,368.500 60.052,368.500 62.678 L 368.500 65.333 368.083 65.333 C 367.750 65.333,367.667 65.417,367.667 65.750 L 367.667 66.167 365.833 66.167 L 364.000 66.167 364.000 62.167 L 364.000 58.167 365.322 58.167 C 366.566 58.167,366.647 58.189,366.697 58.542 M381.970 58.583 C 382.074 58.813,382.274 59.000,382.413 59.000 C 382.610 59.000,382.667 59.213,382.669 59.958 C 382.672 61.321,382.794 61.667,383.269 61.667 C 383.848 61.667,383.850 62.585,383.271 62.730 C 382.800 62.848,382.667 63.355,382.667 65.021 L 382.667 66.167 380.928 66.167 C 379.252 66.167,379.188 66.153,379.137 65.792 C 379.098 65.523,378.953 65.402,378.625 65.364 L 378.167 65.311 378.167 62.156 L 378.167 59.000 378.667 59.000 C 379.089 59.000,379.167 58.935,379.167 58.583 C 379.167 58.174,379.191 58.167,380.473 58.167 C 381.705 58.167,381.791 58.190,381.970 58.583 M343.679 60.046 C 343.659 60.245,343.430 60.207,343.358 59.992 C 343.322 59.882,343.382 59.822,343.492 59.858 C 343.602 59.895,343.686 59.979,343.679 60.046 M389.000 63.102 C 389.000 63.447,389.079 63.500,389.595 63.500 C 390.178 63.500,390.667 63.799,390.667 64.155 C 390.667 64.253,390.887 64.333,391.156 64.333 C 391.565 64.333,391.653 64.408,391.697 64.792 C 391.746 65.211,391.817 65.254,392.542 65.301 C 393.256 65.347,393.333 65.391,393.333 65.759 C 393.333 66.370,390.723 66.402,390.637 65.792 C 390.604 65.561,390.450 65.398,390.235 65.367 C 389.964 65.328,389.852 65.141,389.735 64.534 L 389.583 63.750 388.792 63.699 C 388.019 63.650,388.000 63.635,388.000 63.103 C 388.000 62.592,388.031 62.562,388.500 62.631 C 388.895 62.689,389.000 62.788,389.000 63.102 M388.823 64.399 C 388.674 64.548,387.840 64.645,387.763 64.522 C 387.722 64.455,387.962 64.382,388.296 64.359 C 388.631 64.337,388.868 64.354,388.823 64.399 M336.822 66.070 C 337.007 66.293,336.914 66.315,336.365 66.179 C 336.301 66.164,336.499 65.833,336.573 65.833 C 336.602 65.833,336.714 65.940,336.822 66.070 M349.268 67.111 C 349.277 67.294,349.185 67.444,349.063 67.444 C 348.933 67.444,348.855 67.284,348.874 67.054 C 348.913 66.587,349.242 66.635,349.268 67.111 M328.000 67.980 C 328.000 68.189,327.572 68.516,327.453 68.397 C 327.344 68.288,327.675 67.850,327.875 67.840 C 327.944 67.836,328.000 67.899,328.000 67.980 " stroke="none" fill="#443c3c" fill-rule="evenodd"></path><path id="path1" d="M77.508 18.907 C 77.354 19.092,77.371 19.248,77.581 19.614 L 77.851 20.083 77.749 19.599 C 77.688 19.306,77.724 19.067,77.841 18.995 C 77.964 18.919,77.975 18.837,77.870 18.773 C 77.779 18.716,77.616 18.777,77.508 18.907 M14.333 19.583 C 14.333 19.813,14.408 20.000,14.500 20.000 C 14.592 20.000,14.667 19.931,14.667 19.847 C 14.667 19.763,14.712 19.575,14.768 19.430 C 14.834 19.257,14.777 19.167,14.601 19.167 C 14.427 19.167,14.333 19.312,14.333 19.583 M346.142 19.500 C 346.128 19.683,346.109 19.921,346.100 20.028 C 346.091 20.135,346.179 20.242,346.296 20.265 C 346.413 20.289,346.445 20.275,346.367 20.233 C 346.289 20.192,346.258 19.935,346.298 19.663 C 346.338 19.390,346.325 19.167,346.269 19.167 C 346.213 19.167,346.155 19.317,346.142 19.500 M92.872 22.167 C 92.872 22.488,92.906 22.619,92.948 22.458 C 92.990 22.298,92.990 22.035,92.948 21.875 C 92.906 21.715,92.872 21.846,92.872 22.167 M364.878 22.013 C 364.857 22.295,364.896 22.322,365.091 22.160 C 365.222 22.051,365.289 21.896,365.238 21.814 C 365.080 21.558,364.905 21.654,364.878 22.013 M382.435 23.313 C 382.188 23.585,382.184 23.638,382.404 23.722 C 382.543 23.775,382.701 23.746,382.756 23.657 C 382.811 23.568,382.921 23.535,383.000 23.583 C 383.079 23.632,383.198 23.584,383.265 23.476 C 383.349 23.340,383.273 23.310,383.013 23.378 C 382.735 23.451,382.664 23.415,382.732 23.238 C 382.854 22.918,382.774 22.938,382.435 23.313 M207.175 23.492 C 207.042 23.576,206.878 23.611,206.811 23.570 C 206.744 23.528,206.643 23.571,206.585 23.664 C 206.527 23.757,206.579 23.831,206.698 23.827 C 206.960 23.820,207.823 23.347,207.583 23.342 C 207.492 23.340,207.308 23.407,207.175 23.492 M25.286 25.617 C 25.390 25.889,25.415 25.887,25.659 25.593 C 25.822 25.396,25.798 25.357,25.531 25.377 C 25.337 25.391,25.237 25.490,25.286 25.617 M28.833 29.230 C 28.833 31.217,28.898 32.520,29.000 32.583 C 29.109 32.651,29.167 31.561,29.167 29.436 C 29.167 27.449,29.102 26.146,29.000 26.083 C 28.891 26.016,28.833 27.106,28.833 29.230 M196.581 26.337 C 196.534 26.414,196.552 26.506,196.622 26.541 C 196.841 26.650,197.165 26.590,197.208 26.433 C 197.262 26.238,196.696 26.152,196.581 26.337 M355.667 27.073 C 355.667 27.398,355.948 27.552,356.098 27.310 C 356.178 27.179,356.145 27.160,355.997 27.252 C 355.837 27.351,355.806 27.312,355.883 27.111 C 355.942 26.958,355.917 26.833,355.828 26.833 C 355.739 26.833,355.667 26.941,355.667 27.073 M214.917 27.794 C 214.825 27.862,214.727 28.023,214.699 28.153 C 214.659 28.338,214.699 28.347,214.881 28.196 C 215.009 28.090,215.167 28.056,215.232 28.121 C 215.298 28.187,215.301 28.111,215.241 27.953 C 215.115 27.625,215.134 27.634,214.917 27.794 M99.247 28.813 C 99.338 29.109,99.316 29.176,99.159 29.078 C 99.019 28.992,98.990 29.016,99.072 29.149 C 99.169 29.305,99.250 29.305,99.439 29.148 C 99.573 29.037,99.623 28.901,99.550 28.846 C 99.476 28.791,99.351 28.672,99.271 28.581 C 99.186 28.486,99.176 28.583,99.247 28.813 M211.696 28.715 C 211.562 28.876,211.610 28.988,211.883 29.159 C 212.204 29.359,212.225 29.356,212.046 29.139 C 211.889 28.950,211.887 28.846,212.037 28.696 C 212.167 28.566,212.173 28.500,212.054 28.500 C 211.955 28.500,211.794 28.597,211.696 28.715 M363.292 28.618 C 363.498 28.657,363.835 28.657,364.042 28.618 C 364.248 28.578,364.079 28.545,363.667 28.545 C 363.254 28.545,363.085 28.578,363.292 28.618 M363.542 28.953 C 363.794 28.991,364.206 28.991,364.458 28.953 C 364.710 28.915,364.504 28.883,364.000 28.883 C 363.496 28.883,363.290 28.915,363.542 28.953 M38.542 29.453 C 38.427 29.494,38.333 29.594,38.333 29.675 C 38.333 29.756,38.458 29.775,38.611 29.716 C 38.776 29.653,38.846 29.678,38.785 29.777 C 38.728 29.869,38.791 29.944,38.924 29.944 C 39.057 29.944,39.167 29.891,39.167 29.826 C 39.167 29.619,38.758 29.375,38.542 29.453 M363.542 30.619 C 363.794 30.658,364.206 30.658,364.458 30.619 C 364.710 30.581,364.504 30.550,364.000 30.550 C 363.496 30.550,363.290 30.581,363.542 30.619 M30.392 31.293 C 30.453 31.391,30.418 31.499,30.316 31.534 C 30.196 31.573,30.220 31.670,30.384 31.806 C 30.555 31.948,30.672 31.959,30.745 31.841 C 30.804 31.745,30.769 31.667,30.667 31.667 C 30.564 31.667,30.523 31.597,30.576 31.512 C 30.629 31.426,30.584 31.302,30.477 31.236 C 30.361 31.164,30.326 31.187,30.392 31.293 M383.248 31.668 C 383.613 31.737,384.054 31.741,384.227 31.677 C 384.412 31.609,384.136 31.556,383.563 31.551 C 382.659 31.543,382.634 31.552,383.248 31.668 M299.833 32.667 C 299.833 32.875,300.010 32.875,300.333 32.667 C 300.535 32.536,300.512 32.505,300.208 32.503 C 300.002 32.501,299.833 32.575,299.833 32.667 M25.102 33.197 C 25.181 33.325,25.130 33.355,24.949 33.286 C 24.800 33.228,24.633 33.253,24.579 33.341 C 24.525 33.428,24.668 33.500,24.897 33.500 C 25.388 33.500,25.609 33.244,25.240 33.103 C 25.072 33.038,25.024 33.071,25.102 33.197 M88.213 34.854 C 88.014 35.053,88.106 35.500,88.346 35.500 C 88.425 35.500,88.442 35.375,88.383 35.223 C 88.312 35.037,88.341 34.985,88.470 35.065 C 88.596 35.143,88.628 35.094,88.564 34.925 C 88.445 34.617,88.449 34.617,88.213 34.854 M132.744 34.843 C 132.664 34.973,132.683 35.009,132.796 34.940 C 133.043 34.787,133.193 35.072,133.055 35.431 C 132.949 35.705,132.933 35.704,132.816 35.404 C 132.732 35.190,132.687 35.166,132.681 35.333 C 132.660 35.912,132.970 36.083,133.185 35.610 C 133.420 35.094,133.020 34.397,132.744 34.843 M359.367 34.867 C 359.066 35.168,359.123 36.091,359.458 36.355 C 359.720 36.560,359.728 36.555,359.530 36.303 C 359.250 35.944,359.333 34.899,359.637 34.962 C 359.759 34.988,359.811 34.931,359.753 34.837 C 359.620 34.623,359.609 34.624,359.367 34.867 M128.250 35.000 C 128.117 35.215,128.296 35.504,128.552 35.487 C 128.695 35.477,128.692 35.450,128.542 35.390 C 128.427 35.343,128.333 35.229,128.333 35.135 C 128.333 35.041,128.450 35.009,128.592 35.064 C 128.740 35.121,128.807 35.093,128.749 34.998 C 128.618 34.786,128.382 34.787,128.250 35.000 M161.241 35.015 C 161.179 35.114,161.213 35.279,161.315 35.381 C 161.451 35.517,161.500 35.469,161.500 35.200 C 161.500 34.798,161.413 34.736,161.241 35.015 M315.000 35.018 C 314.793 35.167,314.804 35.181,315.060 35.097 C 315.294 35.021,315.346 35.061,315.270 35.257 C 315.213 35.407,315.241 35.474,315.335 35.415 C 315.527 35.297,315.559 34.832,315.375 34.836 C 315.306 34.837,315.137 34.919,315.000 35.018 M143.230 35.366 C 143.158 35.482,143.191 35.504,143.319 35.426 C 143.454 35.342,143.505 35.397,143.469 35.591 C 143.440 35.751,143.529 35.914,143.667 35.954 C 143.889 36.017,143.889 36.006,143.667 35.849 C 143.497 35.729,143.484 35.671,143.625 35.669 C 143.740 35.668,143.833 35.600,143.833 35.518 C 143.833 35.282,143.356 35.162,143.230 35.366 M359.500 35.553 C 359.500 35.776,359.631 36.062,359.792 36.188 C 360.045 36.387,360.059 36.384,359.896 36.167 C 359.794 36.029,359.731 35.786,359.757 35.626 C 359.782 35.466,359.735 35.292,359.652 35.241 C 359.568 35.189,359.500 35.330,359.500 35.553 M183.600 35.600 C 183.464 35.954,183.576 36.071,183.923 35.937 C 184.072 35.880,184.165 35.744,184.128 35.635 C 184.022 35.316,183.717 35.296,183.600 35.600 M94.259 35.653 C 94.205 35.739,94.318 35.920,94.509 36.054 C 94.744 36.219,94.788 36.321,94.645 36.368 C 94.503 36.416,94.529 36.475,94.725 36.551 C 94.888 36.613,94.975 36.595,94.923 36.510 C 94.871 36.425,94.905 36.309,95.000 36.250 C 95.265 36.087,95.025 35.834,94.717 35.952 C 94.543 36.019,94.486 35.991,94.559 35.873 C 94.621 35.772,94.601 35.646,94.514 35.592 C 94.427 35.538,94.312 35.566,94.259 35.653 M101.617 35.777 C 101.685 35.956,101.658 36.014,101.540 35.941 C 101.439 35.879,101.302 35.916,101.236 36.023 C 101.163 36.140,101.187 36.174,101.296 36.106 C 101.396 36.045,101.522 36.068,101.577 36.157 C 101.632 36.246,101.800 36.272,101.949 36.214 C 102.152 36.137,102.185 36.170,102.079 36.347 C 101.957 36.549,101.977 36.550,102.218 36.355 C 102.523 36.107,102.605 35.916,102.333 36.083 C 102.242 36.140,102.167 36.065,102.167 35.917 C 102.167 35.768,102.092 35.693,102.000 35.750 C 101.908 35.807,101.833 35.774,101.833 35.677 C 101.833 35.579,101.761 35.500,101.672 35.500 C 101.583 35.500,101.558 35.625,101.617 35.777 M128.615 36.014 C 128.543 36.287,128.571 36.315,128.756 36.162 C 128.882 36.057,129.059 36.016,129.148 36.072 C 129.237 36.127,129.365 36.077,129.432 35.961 C 129.499 35.845,129.494 35.804,129.421 35.869 C 129.349 35.935,129.158 35.918,128.996 35.831 C 128.768 35.709,128.684 35.749,128.615 36.014 M175.436 35.927 C 175.304 36.270,175.442 36.458,175.663 36.237 C 175.749 36.151,175.758 35.981,175.683 35.860 C 175.576 35.686,175.523 35.700,175.436 35.927 M29.333 35.990 C 29.333 36.076,29.410 36.194,29.503 36.252 C 29.596 36.309,29.626 36.432,29.569 36.524 C 29.512 36.616,29.622 36.594,29.813 36.474 C 30.004 36.355,30.201 36.151,30.251 36.022 C 30.322 35.834,30.292 35.827,30.102 35.985 C 29.939 36.120,29.829 36.127,29.755 36.008 C 29.621 35.791,29.333 35.779,29.333 35.990 M45.000 35.949 C 45.000 36.044,44.812 36.100,44.583 36.075 C 44.353 36.050,44.205 36.094,44.255 36.174 C 44.304 36.254,44.466 36.272,44.616 36.214 C 44.817 36.137,44.853 36.172,44.754 36.347 C 44.673 36.489,44.742 36.468,44.925 36.296 C 45.093 36.137,45.178 35.956,45.115 35.893 C 45.052 35.830,45.000 35.855,45.000 35.949 M96.508 35.992 C 96.375 36.076,96.187 36.098,96.091 36.040 C 95.995 35.983,96.010 36.051,96.124 36.192 C 96.237 36.332,96.277 36.501,96.212 36.566 C 96.147 36.631,96.237 36.629,96.413 36.562 C 96.615 36.484,96.656 36.413,96.524 36.369 C 96.378 36.320,96.405 36.232,96.616 36.072 C 96.955 35.815,96.878 35.757,96.508 35.992 M299.333 35.982 C 299.333 36.064,299.452 36.177,299.597 36.232 C 300.005 36.389,300.059 36.355,299.833 36.083 C 299.603 35.806,299.333 35.752,299.333 35.982 M63.463 36.507 C 63.422 36.786,63.451 37.053,63.528 37.101 C 63.604 37.148,63.667 36.919,63.667 36.593 C 63.667 35.866,63.564 35.823,63.463 36.507 M169.756 36.156 C 169.691 36.261,169.737 36.322,169.863 36.296 C 169.984 36.271,170.059 36.360,170.029 36.495 C 169.989 36.678,170.063 36.661,170.321 36.428 C 170.698 36.087,170.804 35.846,170.446 36.142 C 170.290 36.272,170.173 36.273,170.048 36.148 C 169.923 36.023,169.837 36.025,169.756 36.156 M305.167 57.146 C 305.167 57.249,305.246 57.333,305.343 57.333 C 305.440 57.333,305.477 57.403,305.424 57.488 C 305.371 57.574,305.404 57.691,305.497 57.748 C 305.766 57.914,305.694 57.397,305.417 57.167 C 305.244 57.023,305.167 57.017,305.167 57.146 M291.753 57.329 C 291.621 57.542,291.894 57.668,292.147 57.512 C 292.314 57.409,292.305 57.358,292.103 57.280 C 291.960 57.226,291.803 57.248,291.753 57.329 M343.358 59.992 C 343.430 60.207,343.659 60.245,343.679 60.046 C 343.686 59.979,343.602 59.895,343.492 59.858 C 343.382 59.822,343.322 59.882,343.358 59.992 M387.763 64.522 C 387.805 64.589,388.042 64.607,388.291 64.562 C 388.978 64.437,388.981 64.313,388.296 64.359 C 387.962 64.382,387.722 64.455,387.763 64.522 M336.417 66.000 C 336.360 66.092,336.337 66.172,336.365 66.179 C 336.914 66.315,337.007 66.293,336.822 66.070 C 336.589 65.789,336.551 65.782,336.417 66.000 M348.874 67.054 C 348.855 67.284,348.933 67.444,349.063 67.444 C 349.321 67.444,349.334 66.805,349.078 66.720 C 348.984 66.689,348.892 66.839,348.874 67.054 M327.552 68.072 C 327.443 68.196,327.398 68.343,327.453 68.397 C 327.572 68.516,328.000 68.189,328.000 67.980 C 328.000 67.767,327.780 67.812,327.552 68.072 " stroke="none" fill="#483c3c" fill-rule="evenodd"></path></g></svg>